<svg id="Calque_1" data-name="Calque 1" xmlns="http://www.w3.org/2000/svg" viewBox="0 0 46.02 61.74"><defs><style>.cls-1{fill:#fff;}</style></defs><title>sigleACTU</title><path class="cls-1" d="M262.18,105.69h-2v-2a0.49,0.49,0,0,0-.49-0.49h-2V101.3a0.49,0.49,0,0,0-.49-0.49H217.14a0.49,0.49,0,0,0-.49.49v55.89a0.49,0.49,0,0,0,.49.49h2v1.86a0.49,0.49,0,0,0,.49.49h2v2a0.49,0.49,0,0,0,.49.49h40.06a0.49,0.49,0,0,0,.49-0.49V106.18A0.49,0.49,0,0,0,262.18,105.69Zm-0.49,55.89H222.61V160h37a0.49,0.49,0,0,0,.49-0.49V106.67h1.55v54.91Zm-44.07-59.79h39.08v54.91H217.63V101.79Zm2.46,55.89H257.2a0.49,0.49,0,0,0,.49-0.49v-53h1.48V159H220.08v-1.37Z" transform="translate(-216.65 -100.81)"></path><path class="cls-1" d="M221.14,110.42H233.9a0.49,0.49,0,0,0,0-1H221.14A0.49,0.49,0,1,0,221.14,110.42Z" transform="translate(-216.65 -100.81)"></path><path class="cls-1" d="M221.14,114.3H233.9a0.49,0.49,0,0,0,0-1H221.14A0.49,0.49,0,1,0,221.14,114.3Z" transform="translate(-216.65 -100.81)"></path><path class="cls-1" d="M221.14,118.18H233.9a0.49,0.49,0,0,0,0-1H221.14A0.49,0.49,0,1,0,221.14,118.18Z" transform="translate(-216.65 -100.81)"></path><path class="cls-1" d="M221.14,122.07H233.9a0.49,0.49,0,0,0,0-1H221.14A0.49,0.49,0,1,0,221.14,122.07Z" transform="translate(-216.65 -100.81)"></path><path class="cls-1" d="M221.14,126H233.9a0.49,0.49,0,1,0,0-1H221.14A0.49,0.49,0,1,0,221.14,126Z" transform="translate(-216.65 -100.81)"></path><path class="cls-1" d="M221.14,129.84H233.9a0.49,0.49,0,0,0,0-1H221.14A0.49,0.49,0,1,0,221.14,129.84Z" transform="translate(-216.65 -100.81)"></path><path class="cls-1" d="M238.95,129.84h13.71a0.49,0.49,0,1,0,0-1H238.95A0.49,0.49,0,0,0,238.95,129.84Z" transform="translate(-216.65 -100.81)"></path><path class="cls-1" d="M238.95,124.87h13.71a0.49,0.49,0,0,0,.49-0.49V106a0.5,0.5,0,0,0-.49-0.49H238.95a0.5,0.5,0,0,0-.49.49v18.34A0.49,0.49,0,0,0,238.95,124.87Zm0.49-18.21v-0.13h12.73V123.9H239.44V106.67Z" transform="translate(-216.65 -100.81)"></path><path class="cls-1" d="M220.66,153.14h13.71a0.49,0.49,0,0,0,.49-0.49V134.31a0.49,0.49,0,0,0-.49-0.49H220.66a0.49,0.49,0,0,0-.49.49v18.34A0.49,0.49,0,0,0,220.66,153.14Zm0.49-18.34h12.73v17.36H221.15V134.8Z" transform="translate(-216.65 -100.81)"></path><path class="cls-1" d="M238.95,133.72h13.71a0.49,0.49,0,1,0,0-1H238.95A0.49,0.49,0,0,0,238.95,133.72Z" transform="translate(-216.65 -100.81)"></path><path class="cls-1" d="M238.95,137.6h13.71a0.49,0.49,0,1,0,0-1H238.95A0.49,0.49,0,0,0,238.95,137.6Z" transform="translate(-216.65 -100.81)"></path><path class="cls-1" d="M238.95,141.49h13.71a0.49,0.49,0,1,0,0-1H238.95A0.49,0.49,0,0,0,238.95,141.49Z" transform="translate(-216.65 -100.81)"></path><path class="cls-1" d="M238.95,145.37h13.71a0.49,0.49,0,1,0,0-1H238.95A0.49,0.49,0,0,0,238.95,145.37Z" transform="translate(-216.65 -100.81)"></path><path class="cls-1" d="M238.95,149.26h13.71a0.49,0.49,0,1,0,0-1H238.95A0.49,0.49,0,0,0,238.95,149.26Z" transform="translate(-216.65 -100.81)"></path><path class="cls-1" d="M238.95,153.14h13.71a0.49,0.49,0,1,0,0-1H238.95A0.49,0.49,0,0,0,238.95,153.14Z" transform="translate(-216.65 -100.81)"></path></svg>