<svg id="Calque_1" data-name="Calque 1" xmlns="http://www.w3.org/2000/svg" viewBox="0 0 120.71 61.36">
    <defs>
        <style>.cls-1{fill:#fff;}</style>
    </defs>
    <title>sigleCORPO</title>
    <path class="cls-1" d="M439.63,140.83c-4.39-.86-9.19-2.16-10.48-2.84l-0.75-.4h0l-1.89-1v-2.47a22.28,22.28,0,0,0,4.7-9.39,3.05,3.05,0,0,0,3-3v-2.57a3.05,3.05,0,0,0-2.56-3v-0.31c0-7.05-5.81-13.24-12.43-13.24s-12.43,6.19-12.43,13.24v0.27a3,3,0,0,0-3.09,3v2.57a3.07,3.07,0,0,0,3.53,3,22.49,22.49,0,0,0,4.28,8.94v3.2l-1.75.92h0l-0.44.23c-1.3.68-6.1,2-10.48,2.84-4.72.92-8.56,6.14-8.56,11.63V162a0.49,0.49,0,1,0,1,0v-9.56c0-5.05,3.49-9.84,7.77-10.68a59.39,59.39,0,0,0,10.69-2.91c6.33,18.28,8.11,23.1,8.67,24.42l0.11,0.29a0.46,0.46,0,0,0,.08.1,0.35,0.35,0,0,0,.1.13h0a0.49,0.49,0,0,0,.14,0,0.46,0.46,0,0,0,.13,0h0l0.15,0a0.24,0.24,0,0,0,.1-0.06,0.48,0.48,0,0,0,.2-0.23l0.08-.22c0.65-1.31,2.5-6.16,8.95-24.66l0.27,0.14c1.39,0.73,6.21,2,10.75,2.94,4.29,0.84,7.77,5.63,7.77,10.68V162a0.49,0.49,0,1,0,1,0v-9.56C448.19,147,444.35,141.76,439.63,140.83Zm-27.16-6.09a9.61,9.61,0,0,0,6.73,3.33,9.31,9.31,0,0,0,6.31-2.94v1.75L419,143.26l-6.5-6.33v-2.18Zm9.1,20.41L418.94,162l-2.4-6.52,1.22-6.16a0.49,0.49,0,0,0-.12-0.43l-1.51-1.62,3.05-2.9,2.81,2.72-1.69,1.79a0.49,0.49,0,0,0-.12.45Zm-1.64-11.43,6.32-6.15,1.3,0.68-3.29,9.22Zm-8-6,6.32,6.15-4.34,3.76-3.29-9.22Zm3.33,10,1.54,1.64-0.85,4.3-1.76-5Zm6,1.63,1.7-1.81,1,0.91-1.77,5Zm-13.37-25.74a0.49,0.49,0,0,0-.24-0.06l-0.16,0a2.09,2.09,0,0,1-2.76-1.95v-2.57a2.08,2.08,0,0,1,2.5-2,0.49,0.49,0,0,0,.59-0.48v-0.82c0-6.53,5.35-12.26,11.45-12.26s11.45,5.73,11.45,12.26v0.76a0.49,0.49,0,0,0,.49.49,2.07,2.07,0,0,1,2.07,2.07v2.57a2.07,2.07,0,0,1-2.07,2.07l-0.28,0a0.49,0.49,0,0,0-.55.39,21.69,21.69,0,0,1-4.07,8.82,0.47,0.47,0,0,0-.25-0.08,0.49,0.49,0,0,0-.49.49v0.45c-1.83,2-4,3.31-6.31,3.31-2.49,0-4.83-1.53-6.74-3.8a0.48,0.48,0,0,0-.36-0.42,21.7,21.7,0,0,1-4-8.89A0.49,0.49,0,0,0,407.82,123.66Z" transform="translate(-359.5 -102.55)"></path>
    <path class="cls-1" d="M435.61,152.75h-8.66a0.49,0.49,0,0,0-.49.49v2.86a0.49,0.49,0,0,0,.49.49h8.66a0.49,0.49,0,0,0,.49-0.49v-2.86A0.49,0.49,0,0,0,435.61,152.75Zm-0.49,2.86h-7.69v-1.88h7.69v1.88Z" transform="translate(-359.5 -102.55)"></path>
    <path class="cls-1" d="M473,144.49a48.94,48.94,0,0,1-8.73-2.36l-0.63-.33h0l-1.53-.81v-2A18.68,18.68,0,0,0,466,131.2a2.63,2.63,0,0,0,2.52-2.62v-2.15a2.63,2.63,0,0,0-2.14-2.58v-0.19c0-5.93-4.89-11.13-10.45-11.13s-10.45,5.2-10.45,11.13v0.15a2.63,2.63,0,0,0-2.58,2.62v2.15a2.65,2.65,0,0,0,3,2.6,18.85,18.85,0,0,0,3.56,7.4v2.6l-1.41.75-0.05,0-0.06,0-0.06.08,0,0.06a0.48,0.48,0,0,0,0,.11,0.47,0.47,0,0,0,0,.06,0.49,0.49,0,0,0,0,.16s0,0,0,0h0c5.36,15.49,6.89,19.65,7.39,20.81l0.09,0.25a0.46,0.46,0,0,0,.07.09,0.37,0.37,0,0,0,.11.15h0a0.48,0.48,0,0,0,.15,0,0.46,0.46,0,0,0,.12,0h0l0.15,0a0.25,0.25,0,0,0,.1-0.06,0.48,0.48,0,0,0,.2-0.23l0.09-.24c0.59-1.22,2.19-5.45,7.42-20.45l0.14,0.07a48.61,48.61,0,0,0,9,2.46c3.54,0.69,6.42,4.65,6.42,8.83v8a0.49,0.49,0,0,0,1,0v-8C480.2,149.66,477,145.27,473,144.49Zm-22.6-3.22v-1.6a8,8,0,0,0,5.54,2.68,7.75,7.75,0,0,0,5.18-2.35v1.24l-5.38,5.24L452,142.83Zm7.43,15.25L455.71,162l-1.92-5.22,1-5.12a0.49,0.49,0,0,0-.12-0.43L453.48,150l2.43-2.31,2.23,2.16-1.35,1.44a0.49,0.49,0,0,0-.12.45ZM456.65,147l5.17-5,1,0.51L460.11,150Zm-4.05,3.49,1.2,1.28L453.16,155l-1.35-3.85Zm5.08,1.28,1.34-1.42,0.77,0.67-1.37,3.85Zm-11.21-21.58a0.49,0.49,0,0,0-.24-0.06,0.48,0.48,0,0,0-.16,0,1.66,1.66,0,0,1-2.2-1.55v-2.15a1.65,1.65,0,0,1,2-1.61,0.49,0.49,0,0,0,.59-0.48v-0.68c0-5.41,4.43-10.15,9.48-10.15s9.48,4.74,9.48,10.15v0.64a0.49,0.49,0,0,0,.49.49,1.65,1.65,0,0,1,1.65,1.65v2.15a1.68,1.68,0,0,1-1.87,1.63,0.48,0.48,0,0,0-.55.39,18.05,18.05,0,0,1-3.34,7.27,0.49,0.49,0,0,0-.68.45v0.35a7.3,7.3,0,0,1-5.18,2.71c-2,0-4-1.29-5.57-3.2a0.48,0.48,0,0,0-.25-0.3,17.9,17.9,0,0,1-3.4-7.39A0.49,0.49,0,0,0,446.47,130.16Zm3.34,11.91,5.17,5-3.47,3-2.69-7.52Z" transform="translate(-359.5 -102.55)"></path>
    <path class="cls-1" d="M469.63,154.43h-7.23a0.49,0.49,0,0,0-.49.49v2.38a0.49,0.49,0,0,0,.49.49h7.23a0.49,0.49,0,0,0,.49-0.49v-2.38A0.49,0.49,0,0,0,469.63,154.43Zm-0.49,2.38h-6.25v-1.41h6.25v1.41Z" transform="translate(-359.5 -102.55)"></path>
    <path class="cls-1" d="M391.65,142.43l0,0h0a0.49,0.49,0,0,0,0-.17,0.46,0.46,0,0,0,0-.06,0.48,0.48,0,0,0,0-.11l0-.06-0.06-.09-0.06,0-0.05,0L389.9,141v-2a18.68,18.68,0,0,0,3.91-7.79,2.63,2.63,0,0,0,2.52-2.62v-2.15a2.63,2.63,0,0,0-2.14-2.58v-0.19c0-5.93-4.89-11.13-10.45-11.13s-10.45,5.2-10.45,11.13v0.15a2.63,2.63,0,0,0-2.58,2.62v2.15a2.64,2.64,0,0,0,3,2.6,18.86,18.86,0,0,0,3.55,7.4v2.6l-1.41.75h0l-0.37.2a48.94,48.94,0,0,1-8.73,2.36c-4,.78-7.21,5.17-7.21,9.79v8a0.49,0.49,0,1,0,1,0v-8c0-4.18,2.88-8.14,6.42-8.83a51.47,51.47,0,0,0,8.86-2.39c5.21,15.05,6.71,19.14,7.21,20.29l0.09,0.25a0.46,0.46,0,0,0,.07.09,0.37,0.37,0,0,0,.11.15h0a0.48,0.48,0,0,0,.15,0,0.46,0.46,0,0,0,.12,0h0l0.15,0a0.25,0.25,0,0,0,.1-0.06,0.48,0.48,0,0,0,.2-0.23l0.09-.24C384.66,162.13,386.28,157.83,391.65,142.43Zm-13.45-2.75a8,8,0,0,0,5.54,2.68,7.75,7.75,0,0,0,5.18-2.35v1.24l-5.38,5.23-5.35-5.21v-1.6Zm7.43,16.84L383.52,162l-1.92-5.22,1-5.12a0.49,0.49,0,0,0-.12-0.43L381.29,150l2.43-2.31,2.23,2.16-1.35,1.44a0.49,0.49,0,0,0-.12.45Zm-8-14.44,5.17,5-3.47,3-2.69-7.52Zm2.79,8.39,1.2,1.28L381,155l-1.35-3.85Zm5.08,1.28,1.34-1.42L387.6,151l-1.37,3.85Zm2.42-1.77-3.45-3,5.17-5,1,0.51Zm-13.64-19.81a0.49,0.49,0,0,0-.24-0.06,0.48,0.48,0,0,0-.16,0,1.66,1.66,0,0,1-2.2-1.55v-2.15a1.66,1.66,0,0,1,2-1.61,0.49,0.49,0,0,0,.59-0.48v-0.68c0-5.41,4.43-10.15,9.48-10.15s9.48,4.74,9.48,10.15v0.64a0.49,0.49,0,0,0,.49.49,1.65,1.65,0,0,1,1.65,1.65v2.15a1.68,1.68,0,0,1-1.87,1.63,0.48,0.48,0,0,0-.55.39,18,18,0,0,1-3.34,7.27,0.49,0.49,0,0,0-.68.45v0.35a7.3,7.3,0,0,1-5.18,2.71c-2,0-4-1.29-5.57-3.2a0.48,0.48,0,0,0-.25-0.29,17.91,17.91,0,0,1-3.4-7.39A0.49,0.49,0,0,0,374.28,130.16Z" transform="translate(-359.5 -102.55)"></path>
</svg>