<svg id="Calque_1" data-name="Calque 1" xmlns="http://www.w3.org/2000/svg" viewBox="0 0 76.25 83.91"><defs><style>.cls-1{fill:#fff;}</style></defs><title>sigleENVIRO</title><path class="cls-1" d="M969.2,126.42a0.49,0.49,0,0,0-.68.1l-0.22.29-3.36,4.47-3.36-4.47-0.22-.29,0,0,0-.05h0l-0.09,0-0.09,0h-0.19l-0.08,0-0.1,0h0l0,0.05-0.05,0-0.22.29L957,131.29l-1.47-2-0.84-1.12-0.84-1.12-0.21-.27-0.22-.29a0.49,0.49,0,1,0-.78.59l2,2.67,0.84,1.12,0.84,1.12,0.28,0.37a0.49,0.49,0,0,0,.78,0l3.58-4.77,3.58,4.77a0.49,0.49,0,0,0,.78,0l4-5.29A0.49,0.49,0,0,0,969.2,126.42Z" transform="translate(-928.54 -73.44)"></path><path class="cls-1" d="M1002,128.2a11.52,11.52,0,0,0-2.63-14.41,8.75,8.75,0,0,0,1.35-4.68,8.84,8.84,0,0,0-4.05-7.42,7.28,7.28,0,0,0-3.74-10.29,6.39,6.39,0,0,0,.29-1.91A6.45,6.45,0,1,0,980.47,91a7.68,7.68,0,0,0-5,7.16,7.6,7.6,0,0,0,1,3.78,8.43,8.43,0,0,0-2.6,2.2l-9-30.42a0.51,0.51,0,0,0-.94,0l-12.45,41.89-6.67-22.45a0.51,0.51,0,0,0-.94,0l-15.28,51.4a0.49,0.49,0,0,0,.47.63h13.29v11a0.49,0.49,0,0,0,.49.49h2.89a0.49,0.49,0,0,0,.49-0.49v-11h13.4a0.49,0.49,0,0,0,.47-0.63l-0.81-2.72h2.66v14.55a0.49,0.49,0,0,0,.49.49h3.8a0.49,0.49,0,0,0,.49-0.49V141.87h3.7c2.94,3.28,7.91,5.59,13.69,6v8.95a0.49,0.49,0,0,0,.49.49h3.8a0.49,0.49,0,0,0,.49-0.49v-9c9-.91,15.94-6.29,15.94-12.79A10.22,10.22,0,0,0,1002,128.2Zm-14.1,28.17H985v-8.25h2.82v8.25Zm-1.7-9.35c-6,0-11.29-2-14.48-5.15-0.16-.16-0.31-0.32-0.46-0.49s-0.3-.32-0.44-0.49a9.12,9.12,0,0,1-2.25-5.84c0-.19,0-0.37,0-0.56s0-.47.08-0.71l0-.15c0-.14,0-0.29.08-0.43a10.36,10.36,0,0,1,3.35-5.35,0.49,0.49,0,0,0,.16-0.35,0.49,0.49,0,0,0-.15-0.36A8.15,8.15,0,0,1,974,114a0.49,0.49,0,0,0,.19-0.69,7.3,7.3,0,0,1-.62-6.72c0.09-.23.2-0.45,0.31-0.67s0.21-.41.33-0.6a7.46,7.46,0,0,1,3.15-2.74,0.49,0.49,0,0,0,.2-0.72,6.62,6.62,0,0,1-1.13-3.71,6.69,6.69,0,0,1,4.75-6.37,0.49,0.49,0,0,0,.32-0.62,5.47,5.47,0,1,1,10.28.32,0.49,0.49,0,0,0,.31.65,6.3,6.3,0,0,1,3.43,9.43,0.49,0.49,0,0,0,.17.69,7.83,7.83,0,0,1,2.56,11.32,0.49,0.49,0,0,0,.1.67,10.54,10.54,0,0,1,2.56,13.74,0.49,0.49,0,0,0,.06.59,9.37,9.37,0,0,1,2.8,6.45C1003.81,141.65,995.9,147,986.17,147Zm-20.47,8.91h-2.82V141.87h2.82v14.06Zm0.49-15H945l1.34-4.5,0.4-1.35,0.4-1.34,0-.06h0l4.33-14.57,0.25-.86,0.26-.86,0.76-2.56,3.88,5.16a0.49,0.49,0,0,0,.78,0l4-5.29a0.49,0.49,0,1,0-.78-0.59l-0.22.29L957,118.84l-3.36-4.47-0.22-.29a0.48,0.48,0,0,0-.42-0.19L964.37,75.6l6.56,22.06a0.47,0.47,0,0,0-.2.15l-0.22.29-3.36,4.47-3.36-4.47-0.22-.29a0.49,0.49,0,1,0-.78.59l4,5.29a0.49,0.49,0,0,0,.78,0l3.71-4.94,1.93,6.48a8.33,8.33,0,0,0-.06,8.2,9.12,9.12,0,0,0-2,14,10.46,10.46,0,0,0-3.52,7.58,9.85,9.85,0,0,0,2,5.84h-3.39Zm-21,14.8h-1.92V145.22h1.92v10.47Zm0.49-11.45h-16l5.8-19.5,2.81,3.74a0.49,0.49,0,0,0,.78,0l3-4a0.49,0.49,0,1,0-.78-0.59l-0.22.29-2.41,3.21-2.41-3.21-0.22-.29a0.48,0.48,0,0,0-.26-0.17L944.31,95l4.86,16.34a0.48,0.48,0,0,0-.11.1l-0.22.29L946.42,115,944,111.78l-0.22-.29a0.49,0.49,0,1,0-.78.59l3,4a0.49,0.49,0,0,0,.78,0l2.69-3.58,1.44,4.84-4.84,16.28-0.69,2.31-0.68.9-2.41-3.21-0.22-.29,0,0,0-.05h0l-0.09,0-0.09,0h-0.19l-0.08,0-0.1,0h0l0,0.05-0.05,0-0.22.29-2.41,3.21-2.41-3.21-0.22-.29a0.49,0.49,0,1,0-.78.59l3,4a0.49,0.49,0,0,0,.78,0l2.63-3.51,2.63,3.51a0.49,0.49,0,0,0,.39.2h0l-0.92,3.1a0.49,0.49,0,0,0,.47.63h4.84l1,1.28a0.49,0.49,0,0,0,.78,0l1-1.28h6.37l0.71,2.37H945.69Zm4.68-2.37h0.27l-0.13.18Z" transform="translate(-928.54 -73.44)"></path><path class="cls-1" d="M987.39,111.54l-0.51,0a5.59,5.59,0,0,1-5-5c0-.17,0-0.34,0-0.51a0.49,0.49,0,1,0-1,0,6.52,6.52,0,0,0,1.61,4.29,5.53,5.53,0,0,1-.49.7,5.6,5.6,0,0,1-3.14,1.91,5.53,5.53,0,0,1-1,.14,0.49,0.49,0,0,0,0,1h0a6.58,6.58,0,0,0,5.35-3,6.53,6.53,0,0,0,4.25,1.57A0.49,0.49,0,0,0,987.39,111.54Z" transform="translate(-928.54 -73.44)"></path><path class="cls-1" d="M992.89,96.19a0.49,0.49,0,0,0-.69-0.07,5.54,5.54,0,0,1-.88.57,5.6,5.6,0,0,1-3.63.57,5.53,5.53,0,0,1-1-.27,0.49,0.49,0,0,0-.35.91,6.58,6.58,0,0,0,6.48-1A0.49,0.49,0,0,0,992.89,96.19Z" transform="translate(-928.54 -73.44)"></path><path class="cls-1" d="M998.18,128.39a0.49,0.49,0,0,0-.68.14c-0.1.15-.23,0.28-0.34,0.42a5.47,5.47,0,0,1-6.91,1.43c-0.16-.08-0.33-0.15-0.48-0.25a0.49,0.49,0,0,0-.54.82,6.51,6.51,0,0,0,3.59,1.08,6.61,6.61,0,0,0,.82-0.06,6.58,6.58,0,0,0,2.81,5.46,0.49,0.49,0,1,0,.56-0.8,5.53,5.53,0,0,1-.79-0.68,5.6,5.6,0,0,1-1.57-3.32,5.52,5.52,0,0,1,0-.85,6.51,6.51,0,0,0,3.69-2.7A0.49,0.49,0,0,0,998.18,128.39Z" transform="translate(-928.54 -73.44)"></path></svg>