<svg id="Calque_1" data-name="Calque 1" xmlns="http://www.w3.org/2000/svg" viewBox="0 0 52.86 63.37"><defs><style>.cls-1{fill:#fff;}</style></defs><title>sigleGARANTIES</title><path class="cls-1" d="M609.69,117.15a0.49,0.49,0,0,0-.35.14l-7.21,7.21-2.75-2.75a0.49,0.49,0,0,0-.69,0L596.48,124a0.49,0.49,0,0,0,0,.69l5.31,5.31a0.49,0.49,0,0,0,.69,0l9.77-9.77a0.49,0.49,0,0,0,0-.69L610,117.29A0.49,0.49,0,0,0,609.69,117.15Zm-7.55,11.78-4.62-4.62,1.53-1.52,2.75,2.75a0.5,0.5,0,0,0,.69,0l7.21-7.21,1.52,1.52Z" transform="translate(-577.73 -102.44)"></path><path class="cls-1" d="M603.7,111.8a11.83,11.83,0,1,0,11.83,11.83A11.84,11.84,0,0,0,603.7,111.8Zm0,22.68a10.85,10.85,0,1,1,10.85-10.85A10.86,10.86,0,0,1,603.7,134.48Z" transform="translate(-577.73 -102.44)"></path><path class="cls-1" d="M630.55,158.94l-10.67-24.86a8.09,8.09,0,0,1,1.6-1,5.16,5.16,0,0,0,3.21-3.93,4.87,4.87,0,0,0-.82-4.81,6.22,6.22,0,0,1-1.29-3.27,11.65,11.65,0,0,1,.28-3.83,6,6,0,0,0-.39-4.53c-1-1.94-2.41-2.35-3.92-2.78a9.23,9.23,0,0,1-3.31-1.48,7.34,7.34,0,0,1-2.12-2.66,5.2,5.2,0,0,0-3.9-3.17,5.46,5.46,0,0,0-4.73.83,7.92,7.92,0,0,1-7,.91,4.88,4.88,0,0,0-4.69.51,4.42,4.42,0,0,0-2.35,3.28,9.41,9.41,0,0,1-1.87,3.93,7.63,7.63,0,0,1-3.23,2.7c-1.06.51-2,1-2.59,3.3a5.09,5.09,0,0,0,.85,4.76,6.43,6.43,0,0,1,1.25,3.31,8,8,0,0,1-.45,3.31,5.36,5.36,0,0,0,.58,5.08,4.91,4.91,0,0,0,2.29,2.29L577.77,159a0.49,0.49,0,0,0,.66.63l9.65-4.56,3.08,10.35a0.49,0.49,0,0,0,.44.35h0a0.49,0.49,0,0,0,.45-0.3l8.59-20.46h0a3.57,3.57,0,0,0,2.62-1.11,5.46,5.46,0,0,1,3-1.44l0.42-.06,9.52,23a0.49,0.49,0,0,0,.45.3h0a0.49,0.49,0,0,0,.44-0.35L620.24,155l9.65,4.56A0.49,0.49,0,0,0,630.55,158.94Zm-38.84,4.93-2.86-9.59a0.49,0.49,0,0,0-.68-0.3l-9,4.25,9-21.1,0.62,0.12a5.85,5.85,0,0,1,3.35,1.52A6.14,6.14,0,0,1,594,141.4c0.49,1.21.92,2.26,4.2,3.21a12.46,12.46,0,0,0,1.49.34Zm14.41-22.33a6.44,6.44,0,0,0-3.45,1.66,2.87,2.87,0,0,1-1.7.85,0.48,0.48,0,0,0-.27-0.32,0.49,0.49,0,0,0-.64.26l0,0a10.68,10.68,0,0,1-1.6-.35c-2.82-.82-3.12-1.54-3.56-2.64a7.06,7.06,0,0,0-2.08-3,6.83,6.83,0,0,0-3.83-1.75,3.66,3.66,0,0,1-3.16-2.22,4.41,4.41,0,0,1-.49-4.31,8.91,8.91,0,0,0,.49-3.67,7.35,7.35,0,0,0-1.41-3.76,4.13,4.13,0,0,1-.73-4c0.5-1.91,1.09-2.2,2.07-2.67a8.58,8.58,0,0,0,3.59-3,10.26,10.26,0,0,0,2-4.28,3.52,3.52,0,0,1,1.93-2.69,3.84,3.84,0,0,1,2.13-.72,6.49,6.49,0,0,1,1.76.34,9,9,0,0,0,4.1.4,9.06,9.06,0,0,0,3.71-1.41,4.49,4.49,0,0,1,4-.72,4.3,4.3,0,0,1,3.26,2.69,8.23,8.23,0,0,0,2.39,3,10.16,10.16,0,0,0,3.63,1.64c1.47,0.42,2.53.72,3.32,2.28a5.06,5.06,0,0,1,.31,3.89,12.49,12.49,0,0,0-.29,4.12,7.15,7.15,0,0,0,1.46,3.73,3.93,3.93,0,0,1,.68,4,4.26,4.26,0,0,1-2.71,3.31,8.25,8.25,0,0,0-2.08,1.37l0,0a7,7,0,0,0-.85,1,7.93,7.93,0,0,0-1.41,3.4,4.48,4.48,0,0,1-2.54,3.56c-1.9,1.15-2.72.85-3.86,0.43a7.18,7.18,0,0,0-3.24-.54h0A8.55,8.55,0,0,0,606.12,141.54Zm14,12.34a0.49,0.49,0,0,0-.41,0,0.49,0.49,0,0,0-.27.31l-2.85,9.58-8.86-21.37a6.62,6.62,0,0,1,2.2.5c1.23,0.45,2.39.88,4.7-.52a5.39,5.39,0,0,0,3-4.19,7,7,0,0,1,1.24-3l0.27-.34,10,23.32Z" transform="translate(-577.73 -102.44)"></path><path class="cls-1" d="M618.92,127.64a15.73,15.73,0,1,0-15.22,11.73A15.76,15.76,0,0,0,618.92,127.64Zm-19,10.26a14.76,14.76,0,1,1,18-10.51A14.66,14.66,0,0,1,599.94,137.9Z" transform="translate(-577.73 -102.44)"></path><path class="cls-1" d="M591.57,144.11a0.49,0.49,0,0,0-.64.27l-2,5a0.49,0.49,0,1,0,.91.37l2-5A0.49,0.49,0,0,0,591.57,144.11Z" transform="translate(-577.73 -102.44)"></path><path class="cls-1" d="M589.55,141.62a0.49,0.49,0,0,0-.64.26l-3.74,8.82a0.49,0.49,0,1,0,.9.38l3.74-8.82A0.49,0.49,0,0,0,589.55,141.62Z" transform="translate(-577.73 -102.44)"></path></svg>