<svg id="Calque_1" data-name="Calque 1" xmlns="http://www.w3.org/2000/svg" viewBox="0 0 67.65 70.26"><defs><style>.cls-1{fill:#FF4500;}</style></defs><title>sigleRG</title><path class="cls-1" d="M273.16,28.52V84.87l67.65-13.6V14.61Zm58.36,29.06-3.41.75L320,58.17l9.83-4.47,8.25,0.17v0.71Zm6.56-2.34v0.9l-3.78.83Zm-9.35-33.69L318.85,26l-9.91-.29L317.11,22l3.54-.73Zm-5.27-.83,13.35-2.78-6.68,3Zm-47.37,42V62l8.49-3.83,10,0.19-10,4.54Zm7,0.79-7.05,3.19V63.43Zm22.92-26.48-10,4.48-10-.24,10-4.49Zm-20-1.19L296.1,31.4l10,0.27-10,4.47Zm20,6.58-10,4.49-10-.22,10-4.5Zm0,5.38-10,4.5-10-.21,10-4.51Zm0,5.37-10,4.51-10-.19L296,53Zm-8.53-.84,10-4.5,9.88,0.22-9.91,4.48Zm0-5.39,10-4.49,9.89,0.24-9.91,4.47Zm0-5.4,10-4.48,9.9,0.26-9.92,4.46Zm0-5.41,10-4.47L317.41,32l-9.93,4.45Zm0-5.42,10-4.46,9.91,0.29L307.5,31Zm-1.42,0-10-.28,8.27-3.68,3.58-.74,8.2,0.24Zm-11.49-.32-6.87-.19,13.72-2.85Zm-1.44.64-7.09,3.15V30.85Zm1.44,0,10.06,0.28-10.07,4.49-8.51-.22V34.87Zm-1.44,5.4-7.08,3.16V36.3Zm1.43,0,10,0.26L284.6,41.27l-8.51-.2V40.31Zm-1.44,5.4-7.07,3.16V41.74Zm1.43,0,10,0.24-10,4.51-8.5-.19V45.75Zm-1.44,5.39-7.07,3.17V47.18Zm1.43,0,10,0.22-10,4.52-8.49-.18V51.18Zm-1.44,5.38-7.06,3.18V52.61Zm1.43,0,10,0.2-10,4.53-8.49-.16V56.6Zm-1.44,5.38-7.06,3.18V58ZM296,58.39L306,58.58,296,63.1l-10-.17Zm1.42-.64,10-4.51,9.88,0.2-9.9,4.49Zm21.23-4.28,9.8,0.2-9.83,4.48L308.77,58Zm-9.86-.87,9.9-4.48,9.81,0.22-9.84,4.47Zm0-5.37,9.91-4.47L328.55,43l-9.85,4.46Zm0-5.38,9.92-4.46,9.82,0.25-9.86,4.45Zm0-5.39L318.81,32l9.83,0.27-9.87,4.44Zm0-5.4,9.93-4.44,9.84,0.29-9.87,4.43Zm-1.38-5.45-6.77-.2,13.53-2.81Zm-31.45,43.2,3.86,0.06-3.86.85v-0.9Zm0-.67V67.41l8.48-3.84,10,0.17-8.27,3.75-3.5.77ZM296,63.77l6.79,0.11-13.63,3Zm1.42-.64,9.95-4.52,9.87,0.18-8.16,3.72-3.46.76Zm21.21-4.31,6.7,0.12-13.45,2.95Zm12.62-5.75,6.89-3.14,0,3.28Zm-1.39,0-9.79-.2,9.83-4.46,8.25,0.18v0.71Zm1.43-5.3,6.9-3.13,0,3.28Zm-1.39,0-9.8-.22L329.94,43l8.26,0.2v0.71Zm1.44-5.31,6.9-3.12,0,3.29Zm-1.39,0-9.81-.24L330,37.69l8.26,0.21v0.71Zm1.44-5.31,6.91-3.12,0,3.29ZM330,37l-9.82-.25L330,32.33l8.27,0.23v0.72Zm1.44-5.32,6.91-3.11,0,3.3Zm-1.39,0-9.82-.27L330.08,27l8.28,0.24v0.72Zm1.44-5.32,6.92-3.1,0,3.31Zm-1.39,0L320.25,26l9.87-4.41,8.29,0.26v0.72ZM331.53,21l6.92-3.1,0,3.31Zm8.28,36.71V70.46l-65.65,13.2V72.11l-0.12,0,0.12,0,65.65-14.44h0Z" transform="translate(-273.16 -14.61)"/></svg>