<svg xmlns="http://www.w3.org/2000/svg" viewBox="0 0 75.74 75.7"><defs><style>.cls-1{fill:#ff4500;}</style></defs><title>sigleVC</title><g id="Calque_2" data-name="Calque 2"><g id="Calque_1-2" data-name="Calque 1"><polygon class="cls-1" points="75.74 0 0 15.66 0 20.21 75.73 4.55 75.74 0"/><path class="cls-1" d="M49.08,10.72v1.06l8.29-1.68V37.32L49.08,39v1l8.29-1.68V65.4l-8.29,1.68v1l8.56-1.73.73-.15L75.7,62.56l0-.74V5.23Zm25.66,51L58.36,65.19V38.14l16.38-3.46Zm0-28.08L58.36,37.11V9.91L74.74,6.45Z"/><path class="cls-1" d="M48.48,10.84,36.11,13.39v0l-23.8,4.94V75.7L43.62,69.2l4.86-1v-1h0V40.14h0v-1h0V11.91h0V10.85h0ZM36,66.68,14.6,71.16V69.93L36,65.46Zm0-5.2L14.6,66V64.73L36,60.25Zm0-5.2L14.6,60.76V59.53L36,55.05Zm0-5.2L14.6,55.55V54.33L36,49.85Zm0-5.2L14.6,50.35V49.13L36,44.65Zm0-5.2L14.6,45.15V43.92L36,39.45Zm0-5.2L14.6,39.95V38.72L36,34.25Zm0-5.2L14.6,34.75V33.52L36,29Zm0-5.2L14.6,29.55V28.32L36,23.84Zm0-5.2L14.6,24.34V23.12L36,18.64Zm10.14,44.7L37,66.47V65.25l9.14-1.91Zm0-5.2L37,61.27V60l9.14-1.91Zm0-5.2L37,56.07V54.84l9.14-1.91Zm0-5.2L37,50.87V49.64l9.14-1.91Zm0-5.2L37,45.67V44.44l9.14-1.91Zm0-5.2L37,40.46V39.24l9.14-1.91Zm0-5.2L37,35.26V34l9.14-1.91Zm0-5.2L37,30.06V28.84l9.14-1.91Zm0-5.2L37,24.86V23.63l9.14-1.91Zm0-5.2L37,19.66V18.43l9.14-1.91Z"/></g></g></svg>