<svg id="Calque_1" data-name="Calque 1" xmlns="http://www.w3.org/2000/svg" viewBox="0 0 67.67 80.67"><defs><style>.cls-1{fill:#FF4500;}</style></defs><title>sigleVB</title><path class="cls-1" d="M392.27,318.81h0V262.19h0v0l-67.65,13.91v56.35h0v0l27.24,10.39V286.47l-25.55-9.74,34.31-7.05v27.38l-8.15,1.67v1l8.15-1.67v26.08l-8.15,1.64v1l18.25-3.67v-1l-9.1,1.83V297.87l9.1-1.87v-1l-9.1,1.87V269.47L390,263.64l-18.63,11.75V332l20.9-13.2h0Zm-48.53,11.46-18.12-7v-2.12l18.13,7v2.12Zm0-35-18.12-7v-2.12l18.13,7v2.13ZM378.15,280l13.13-7.73v2.12l-13.12,7.73V280Zm0,35.41,13.13-8.12v2.12l-13.12,8.12V315.4Z" transform="translate(-324.62 -262.15)"/></svg>