<svg id="Calque_1" data-name="Calque 1" xmlns="http://www.w3.org/2000/svg" viewBox="0 0 67.75 74.8"><defs><style>.cls-1{fill:#FF4500;}</style></defs><title>siglePJ</title><path class="cls-1" d="M258.76,10.14V10l-20.2,4.15-0.22,0-30.5,6.27-0.15-.07v0.1l-1.59.33-0.38.08-14.6,3V80.3l0.09,0v0.13l9.25,4.28V78.5l1.8-.35v6.62l3.4-7.27,2.42-.47,8.88,4.1V75.32l16.83-3.24v6.85l4.46-7.71,0.43-.08,2-.44L252,75V68.19l2.06-.45V75l4.79-8.28V10Zm-59.31,41.3a0.5,0.5,0,0,1-.66.24l-5.67-2.62a0.5,0.5,0,1,1,.42-0.91l5.67,2.62A0.5,0.5,0,0,1,199.44,51.44Zm0-4.36a0.5,0.5,0,0,1-.66.24L193.1,44.7a0.5,0.5,0,1,1,.42-0.91l5.67,2.62A0.5,0.5,0,0,1,199.44,47.08Zm0-4.36a0.5,0.5,0,0,1-.66.24l-5.67-2.62a0.5,0.5,0,1,1,.42-0.91l5.67,2.62A0.5,0.5,0,0,1,199.44,42.71Zm0-4.36a0.5,0.5,0,0,1-.66.24L193.1,36a0.5,0.5,0,1,1,.42-0.91l5.67,2.62A0.5,0.5,0,0,1,199.44,38.35Zm0-4.36a0.5,0.5,0,0,1-.66.24l-5.67-2.62a0.5,0.5,0,1,1,.42-0.91l5.67,2.62A0.5,0.5,0,0,1,199.44,34Zm2.8,43.14-1.8.35V28.27l-7.82-3.61,12.54-2.58-2.93,6.27V77.13Zm3.38-29.9-1.36,2.89a0.5,0.5,0,0,1-.91-0.43l1.36-2.89A0.5,0.5,0,0,1,205.63,47.24Zm0-4.36-1.36,2.89a0.5,0.5,0,0,1-.45.29,0.49,0.49,0,0,1-.21,0,0.5,0.5,0,0,1-.24-0.67l1.36-2.89A0.5,0.5,0,0,1,205.63,42.87Zm0-4.36-1.36,2.89a0.5,0.5,0,0,1-.91-0.43l1.36-2.89A0.5,0.5,0,0,1,205.63,38.51Zm0-4.36L204.27,37a0.5,0.5,0,1,1-.91-0.42l1.36-2.89A0.5,0.5,0,0,1,205.63,34.15Zm0-4.36-1.36,2.89a0.5,0.5,0,1,1-.91-0.42l1.36-2.89A0.5,0.5,0,0,1,205.63,29.79Zm18.65-11.64V45.79l-7.35,1.35V24.72l-7.58-3.5Zm-8.88,20.2a0.5,0.5,0,0,1-.66.24L209.06,36a0.5,0.5,0,0,1,.42-0.91l5.67,2.62A0.5,0.5,0,0,1,215.4,38.35Zm0,4.36a0.5,0.5,0,0,1-.66.24l-5.67-2.62a0.5,0.5,0,0,1,.42-0.91l5.67,2.62A0.5,0.5,0,0,1,215.4,42.71Zm0-8.73a0.5,0.5,0,0,1-.66.24l-5.67-2.62a0.5,0.5,0,0,1,.42-0.91l5.67,2.62A0.5,0.5,0,0,1,215.4,34Zm-6.58,10a0.5,0.5,0,0,1,.66-0.24l5.67,2.62a0.5,0.5,0,0,1-.42.91l-5.67-2.62A0.5,0.5,0,0,1,208.82,44Zm6.58-14.41a0.5,0.5,0,0,1-.66.24l-5.67-2.62a0.5,0.5,0,0,1,.42-0.91L215.16,29A0.5,0.5,0,0,1,215.4,29.63Zm-9.31-7.74,1.59-.33V76.09l-1.59.31V21.89ZM220.5,73.62l-3.56.69V48.16l7.35-1.35V72.89Zm13.27-2.55-8.48,1.63V46.62l8.48-1.56v26Zm0-27-8.48,1.56V17.94l12.38-2.55-3.9,6.74V44Zm4.08-2.85-1.69,2.91a0.5,0.5,0,1,1-.86-0.5L237,40.69A0.5,0.5,0,1,1,237.85,41.19Zm0-4.39-1.69,2.91a0.5,0.5,0,1,1-.86-0.5L237,36.3A0.5,0.5,0,1,1,237.85,36.8Zm0-4.39-1.69,2.91a0.5,0.5,0,1,1-.86-0.5L237,31.91A0.5,0.5,0,1,1,237.85,32.41Zm0-4.39-1.69,2.91a0.5,0.5,0,1,1-.86-0.5L237,27.51A0.5,0.5,0,1,1,237.85,28Zm0-4.39-1.69,2.91a0.5,0.5,0,1,1-.86-0.5L237,23.12A0.5,0.5,0,1,1,237.85,23.62Zm2.63,46.09-1.93.43V15.21l1.93-.4v54.9Zm10.18-28.26a0.5,0.5,0,0,1-.64.29L243,39.11a0.5,0.5,0,0,1,.35-0.94l7.07,2.64A0.5,0.5,0,0,1,250.66,41.46Zm0-4.39a0.5,0.5,0,0,1-.64.29L243,34.72a0.5,0.5,0,0,1,.35-0.94l7.07,2.64A0.5,0.5,0,0,1,250.66,37.06Zm0-4.39A0.5,0.5,0,0,1,250,33L243,30.33a0.5,0.5,0,0,1,.35-0.94L250.37,32A0.5,0.5,0,0,1,250.66,32.67Zm0-4.39a0.5,0.5,0,0,1-.64.29L243,25.94A0.5,0.5,0,0,1,243.3,25l7.07,2.64A0.5,0.5,0,0,1,250.66,28.28Zm0-4.39a0.5,0.5,0,0,1-.64.29L243,21.54a0.5,0.5,0,0,1,.35-0.94l7.07,2.64A0.5,0.5,0,0,1,250.66,23.89Zm3.41,42.82-2.06.45v-49l-9.88-3.69,15.62-3.21v0.61l-3.69,6.38V66.71Zm4.09-29.41-0.4.68-1.29,2.23a0.5,0.5,0,1,1-.87-0.5l1.69-2.91a0.5,0.5,0,0,1,.47-0.24,0.48,0.48,0,0,1,.22.06A0.5,0.5,0,0,1,258.15,37.3Zm0-4.39-0.4.68-1.29,2.23a0.5,0.5,0,1,1-.87-0.5l1.69-2.91a0.5,0.5,0,0,1,.47-0.24,0.49,0.49,0,0,1,.22.06A0.5,0.5,0,0,1,258.15,32.91Zm0-4.39-0.4.68-1.29,2.23a0.5,0.5,0,1,1-.87-0.5L257.29,28a0.5,0.5,0,0,1,.47-0.24,0.49,0.49,0,0,1,.22.06A0.5,0.5,0,0,1,258.15,28.52Zm0-4.39-0.4.68L256.46,27a0.5,0.5,0,1,1-.87-0.5l1.69-2.91a0.5,0.5,0,0,1,.47-0.24,0.49,0.49,0,0,1,.22.06A0.5,0.5,0,0,1,258.15,24.12Zm0-4.39-0.4.68-1.29,2.23a0.5,0.5,0,1,1-.87-0.5l1.69-2.91a0.5,0.5,0,0,1,.47-0.24,0.49,0.49,0,0,1,.22.06A0.5,0.5,0,0,1,258.15,19.73Z" transform="translate(-191.1 -9.97)"/></svg>