<svg id="Calque_1" data-name="Calque 1" xmlns="http://www.w3.org/2000/svg" viewBox="0 0 35.22 86.57"><defs><style>.cls-1{fill:#FF4500;}</style></defs><title>sigleDO</title><path class="cls-1" d="M410.4,267.15a1.77,1.77,0,0,0,2.5,2.5,11.65,11.65,0,0,1,16.47,0,1.77,1.77,0,0,0,2.51,0,1.78,1.78,0,0,0,0-2.5,15.19,15.19,0,0,0-21.48,0" transform="translate(-402.8 -255.58)"/><path class="cls-1" d="M407.3,264.86a19.58,19.58,0,0,1,27.7,0,1.78,1.78,0,0,0,2.51,0,1.79,1.79,0,0,0,0-2.51,23.14,23.14,0,0,0-32.71,0,1.78,1.78,0,1,0,2.51,2.51" transform="translate(-402.8 -255.58)"/><path class="cls-1" d="M434.92,281a2.14,2.14,0,0,0-2.44-1.53l-27.88,4.86a2.16,2.16,0,0,0-1.79,2.13v52a2.16,2.16,0,0,0,2.16,2.16h0.17a2.15,2.15,0,0,0,2.42,1.52l27.88-4.58a2.16,2.16,0,0,0,1.81-2.14V283.16A2.16,2.16,0,0,0,434.92,281Zm-16.24,52.81a3.05,3.05,0,0,1,2.47-2.89,2,2,0,0,1,2.47,2,3.05,3.05,0,0,1-2.47,2.89A2,2,0,0,1,418.68,333.82Zm17.57-50.66v41.54l-30.21,5V288a1.16,1.16,0,0,1,1-1.15L434.89,282l0.2,0A1.16,1.16,0,0,1,436.25,283.16ZM405,288V339.6a1.15,1.15,0,0,1-1.24-1.16v-52a1.16,1.16,0,0,1,1-1.15l27.88-4.86a1.14,1.14,0,0,1,1.26.69l-27.08,4.72A2.16,2.16,0,0,0,405,288Z" transform="translate(-402.8 -255.58)"/><polygon class="cls-1" points="16.1 54.79 14.33 55.06 14.33 59.45 16.1 59.19 16.1 54.79"/><polygon class="cls-1" points="18.34 54.45 16.57 54.72 16.57 59.12 18.34 58.85 18.34 54.45"/><path class="cls-1" d="M421.47,298.77a0.51,0.51,0,0,0-.37-0.12,0.5,0.5,0,0,0-.34.17l-8.48,10a0.5,0.5,0,0,0,.46.82h0l1.39-.21V319a0.5,0.5,0,0,0,.5.5h0.07l13-2a0.5,0.5,0,0,0,.43-0.49V307.3l1.54-.23h0a0.5,0.5,0,0,0,.25-0.87Zm5.68,17.83-1.56.23v-5.08l-2.26.34v5.08l-8.21,1.24v-9.15l12-1.81v9.15Zm0.43-10.23h0l-13,2h0l-0.64.1,7.29-8.58,7.28,6.39Z" transform="translate(-402.8 -255.58)"/></svg>