<svg id="Calque_1" data-name="Calque 1" xmlns="http://www.w3.org/2000/svg" viewBox="0 0 80.44 73.36">
    <defs>
        <style>.cls-1{fill:#FF4500;}</style>
    </defs>
    <title>siglePGS</title>
    <polygon class="cls-1" points="79.44 7.16 77.94 4.63 77.94 4.63 79.44 7.16 79.44 7.16"/>
    <path class="cls-1" d="M495.19,361.73h0l-1.5-2.52h0l-0.54-.91h0l-1.27-2.13-9.45-1.59L416,368.37v0l-0.2,0v1l8.65,1.46,4.14,7v50.09l67.65-13.6V363.41Zm0,19.05L429.54,394.1v-1l65.65-13.32v1Zm-4-23.71h0.08l0.5,0.85-66,13.38-0.52-.87Zm-61.65,21.81v-1l65.65-13.32v1Zm0,47.84V408.76l65.65-13.32v18.07Z" transform="translate(-415.75 -354.57)"/>
</svg>