<svg id="Calque_1" data-name="Calque 1" xmlns="http://www.w3.org/2000/svg" viewBox="0 0 67.65 70.26"><defs><style>.cls-1{fill:#FF4500;}</style></defs><title>sigleVR</title><path class="cls-1" d="M387,276.93v56.35l67.65-13.6V263Zm58.73,6.77-0.15-.73,3.59-.73,0.15,0.73Zm3.59,5.77-3.59.73-0.15-.73,3.59-.73Zm-3.59-12.26-0.15-.73,3.59-.73,0.15,0.73Zm0-6.49-0.15-.73,3.59-.73,0.15,0.73ZM439,285l-0.15-.73,3.59-.73,0.15,0.73Zm3.59,5.77-3.59.73-0.15-.73,3.59-.73ZM439,278.55l-0.15-.73,3.59-.73,0.15,0.73Zm0-6.49-0.15-.73,3.59-.73,0.15,0.73Zm-6.66,14.34-0.15-.73,3.59-.73,0.15,0.73Zm3.59,5.77-3.59.73-0.15-.73,3.59-.73Zm-3.59-12.26-0.15-.73,3.59-.73,0.15,0.73Zm0-6.49-0.15-.73,3.59-.73,0.15,0.73Zm-6.66,14.34-0.15-.73,3.59-.73L429.3,287Zm3.59,5.77-3.59.73-0.15-.73,3.59-.73Zm-3.59-12.26-0.15-.73,3.59-.73,0.15,0.73Zm0-6.49-0.15-.73,3.59-.73L429.3,274Zm-6.66,14.34-0.15-.73,3.59-.73,0.15,0.73Zm3.59,5.77-3.59.73-0.15-.73,3.59-.73Zm-3.59-12.26-0.15-.73,3.59-.73,0.15,0.73Zm0-6.49-0.15-.73,3.59-.73,0.15,0.73Zm-6.66,14.34-0.15-.73,3.59-.73,0.15,0.73Zm3.59,5.77-3.59.73-0.15-.73,3.59-.73ZM412.4,284l-0.15-.73,3.59-.73,0.15,0.73Zm0-6.49-0.15-.73,3.59-.73,0.15,0.73Zm-6.66,14.34-0.15-.73,3.59-.73,0.15,0.73Zm3.59,5.77-3.59.73-0.15-.73,3.59-.73Zm-3.59-12.26-0.15-.73,3.59-.73,0.15,0.73Zm0-6.49-0.15-.73,3.59-.73,0.15,0.73Zm-6.66,14.34-0.15-.73,3.59-.73,0.15,0.73Zm3.59,5.77-3.59.73-0.15-.73,3.59-.73Zm-3.59-12.26-0.15-.73,3.59-.73,0.15,0.73Zm0-6.49-0.15-.73,3.59-.73,0.15,0.73Zm-6.66,14.34-0.15-.73,3.59-.73,0.15,0.73Zm3.59,5.77-3.59.73-0.15-.73,3.59-.73ZM392.43,288l-0.15-.73,3.59-.73,0.15,0.73Zm0-6.49-0.15-.73,3.59-.73,0.15,0.73ZM388,295.41v-0.77l1.26-.26,0.15,0.73Zm1.41,6.21-1.41.29v-0.77l1.26-.26ZM388,288.91v-0.77l1.26-.26,0.15,0.73Zm0-6.49v-0.77l1.26-.26,0.15,0.73Zm64.39-.07-0.15-.73,1.41-.29v0.77Zm1.26,5.47v0.77l-1.26.26-0.15-.73Zm-1.26-12-0.15-.73,1.41-.29v0.77Zm0-6.49-0.15-.73,1.41-.29v0.77Zm-31.06,56V301.65l-1,.21v23.7L388,332.06V307.83l65.65-13.31v24.35Z" transform="translate(-386.95 -263.02)"/></svg>