<svg id="Calque_1" data-name="Calque 1" xmlns="http://www.w3.org/2000/svg" viewBox="0 0 469.46 226.36"><defs><style>.cls-1,.cls-2,.cls-3,.cls-5{fill:#fff;}.cls-1,.cls-2{stroke:#ebbeb8;stroke-linecap:round;stroke-width:0.98px;}.cls-1,.cls-2,.cls-3{stroke-linejoin:round;}.cls-2{opacity:0.68;}.cls-3{stroke:#FF4500;}.cls-4{fill:#FF4500;}.cls-6{fill:none;stroke:#fff;stroke-miterlimit:10;}</style></defs><title>visuelPG</title><line class="cls-1" x1="259.15" y1="158.03" x2="456.95" y2="158.03"/><rect class="cls-1" x="307.06" y="84.87" width="117.69" height="73.17"/><rect class="cls-1" x="321.81" y="97.63" width="88.48" height="60.41"/><rect class="cls-1" x="307.06" y="78.63" width="121.66" height="6.24"/><rect class="cls-1" x="307.06" y="38.92" width="117.69" height="39.7"/><path class="cls-1" d="M-1144.67,271c4.19,0,4.19,3.4,8.39,3.4s4.19-3.4,8.38-3.4,4.19,3.4,8.38,3.4,4.19-3.4,8.39-3.4,4.19,3.4,8.39,3.4,4.19-3.4,8.39-3.4,4.19,3.4,8.39,3.4,4.19-3.4,8.38-3.4,4.19,3.4,8.38,3.4,4.19-3.4,8.39-3.4,4.19,3.4,8.39,3.4,4.19-3.4,8.39-3.4,4.2,3.4,8.39,3.4,4.2-3.4,8.39-3.4" transform="translate(1452.06 -229.2)"/><path class="cls-1" d="M-1144.67,271c4.19,0,4.19,3.4,8.39,3.4s4.19-3.4,8.38-3.4,4.19,3.4,8.38,3.4,4.19-3.4,8.39-3.4,4.19,3.4,8.39,3.4,4.19-3.4,8.39-3.4,4.19,3.4,8.39,3.4,4.19-3.4,8.38-3.4,4.19,3.4,8.38,3.4,4.19-3.4,8.39-3.4,4.19,3.4,8.39,3.4,4.19-3.4,8.39-3.4,4.2,3.4,8.39,3.4,4.2-3.4,8.39-3.4" transform="translate(1452.06 -229.2)"/><path class="cls-1" d="M-1144.67,278.33c4.19,0,4.19,3.4,8.39,3.4s4.19-3.4,8.38-3.4,4.19,3.4,8.38,3.4,4.19-3.4,8.39-3.4,4.19,3.4,8.39,3.4,4.19-3.4,8.39-3.4,4.19,3.4,8.39,3.4,4.19-3.4,8.38-3.4,4.19,3.4,8.38,3.4,4.19-3.4,8.39-3.4,4.19,3.4,8.39,3.4,4.19-3.4,8.39-3.4,4.2,3.4,8.39,3.4,4.2-3.4,8.39-3.4" transform="translate(1452.06 -229.2)"/><path class="cls-1" d="M-1144.67,278.33c4.19,0,4.19,3.4,8.39,3.4s4.19-3.4,8.38-3.4,4.19,3.4,8.38,3.4,4.19-3.4,8.39-3.4,4.19,3.4,8.39,3.4,4.19-3.4,8.39-3.4,4.19,3.4,8.39,3.4,4.19-3.4,8.38-3.4,4.19,3.4,8.38,3.4,4.19-3.4,8.39-3.4,4.19,3.4,8.39,3.4,4.19-3.4,8.39-3.4,4.2,3.4,8.39,3.4,4.2-3.4,8.39-3.4" transform="translate(1452.06 -229.2)"/><path class="cls-1" d="M-1144.67,285.7c4.19,0,4.19,3.4,8.39,3.4s4.19-3.4,8.38-3.4,4.19,3.4,8.38,3.4,4.19-3.4,8.39-3.4,4.19,3.4,8.39,3.4,4.19-3.4,8.39-3.4,4.19,3.4,8.39,3.4,4.19-3.4,8.38-3.4,4.19,3.4,8.38,3.4,4.19-3.4,8.39-3.4,4.19,3.4,8.39,3.4,4.19-3.4,8.39-3.4,4.2,3.4,8.39,3.4,4.2-3.4,8.39-3.4" transform="translate(1452.06 -229.2)"/><path class="cls-1" d="M-1144.67,285.7c4.19,0,4.19,3.4,8.39,3.4s4.19-3.4,8.38-3.4,4.19,3.4,8.38,3.4,4.19-3.4,8.39-3.4,4.19,3.4,8.39,3.4,4.19-3.4,8.39-3.4,4.19,3.4,8.39,3.4,4.19-3.4,8.38-3.4,4.19,3.4,8.38,3.4,4.19-3.4,8.39-3.4,4.19,3.4,8.39,3.4,4.19-3.4,8.39-3.4,4.2,3.4,8.39,3.4,4.2-3.4,8.39-3.4" transform="translate(1452.06 -229.2)"/><path class="cls-1" d="M-1144.67,293.08c4.19,0,4.19,3.4,8.39,3.4s4.19-3.4,8.38-3.4,4.19,3.4,8.38,3.4,4.19-3.4,8.39-3.4,4.19,3.4,8.39,3.4,4.19-3.4,8.39-3.4,4.19,3.4,8.39,3.4,4.19-3.4,8.38-3.4,4.19,3.4,8.38,3.4,4.19-3.4,8.39-3.4,4.19,3.4,8.39,3.4,4.19-3.4,8.39-3.4,4.2,3.4,8.39,3.4,4.2-3.4,8.39-3.4" transform="translate(1452.06 -229.2)"/><path class="cls-1" d="M-1144.67,293.08c4.19,0,4.19,3.4,8.39,3.4s4.19-3.4,8.38-3.4,4.19,3.4,8.38,3.4,4.19-3.4,8.39-3.4,4.19,3.4,8.39,3.4,4.19-3.4,8.39-3.4,4.19,3.4,8.39,3.4,4.19-3.4,8.38-3.4,4.19,3.4,8.38,3.4,4.19-3.4,8.39-3.4,4.19,3.4,8.39,3.4,4.19-3.4,8.39-3.4,4.2,3.4,8.39,3.4,4.2-3.4,8.39-3.4" transform="translate(1452.06 -229.2)"/><path class="cls-1" d="M-1144.67,300.45c4.19,0,4.19,3.4,8.39,3.4s4.19-3.4,8.38-3.4,4.19,3.4,8.38,3.4,4.19-3.4,8.39-3.4,4.19,3.4,8.39,3.4,4.19-3.4,8.39-3.4,4.19,3.4,8.39,3.4,4.19-3.4,8.38-3.4,4.19,3.4,8.38,3.4,4.19-3.4,8.39-3.4,4.19,3.4,8.39,3.4,4.19-3.4,8.39-3.4,4.2,3.4,8.39,3.4,4.2-3.4,8.39-3.4" transform="translate(1452.06 -229.2)"/><path class="cls-1" d="M-1144.67,300.45c4.19,0,4.19,3.4,8.39,3.4s4.19-3.4,8.38-3.4,4.19,3.4,8.38,3.4,4.19-3.4,8.39-3.4,4.19,3.4,8.39,3.4,4.19-3.4,8.39-3.4,4.19,3.4,8.39,3.4,4.19-3.4,8.38-3.4,4.19,3.4,8.38,3.4,4.19-3.4,8.39-3.4,4.19,3.4,8.39,3.4,4.19-3.4,8.39-3.4,4.2,3.4,8.39,3.4,4.2-3.4,8.39-3.4" transform="translate(1452.06 -229.2)"/><line class="cls-1" x1="321.81" y1="154.41" x2="409.84" y2="154.41"/><line class="cls-1" x1="321.81" y1="151.06" x2="409.84" y2="151.06"/><line class="cls-1" x1="321.81" y1="147.71" x2="409.84" y2="147.71"/><line class="cls-1" x1="321.81" y1="144.35" x2="409.84" y2="144.35"/><line class="cls-1" x1="321.81" y1="141" x2="409.84" y2="141"/><line class="cls-1" x1="321.81" y1="137.65" x2="409.84" y2="137.65"/><line class="cls-1" x1="321.81" y1="134.29" x2="409.84" y2="134.29"/><line class="cls-1" x1="321.81" y1="130.94" x2="409.84" y2="130.94"/><line class="cls-1" x1="321.81" y1="127.59" x2="409.84" y2="127.59"/><line class="cls-1" x1="321.81" y1="124.23" x2="409.84" y2="124.23"/><line class="cls-1" x1="321.81" y1="120.88" x2="409.84" y2="120.88"/><line class="cls-1" x1="321.81" y1="117.53" x2="409.84" y2="117.53"/><line class="cls-1" x1="321.81" y1="114.17" x2="409.84" y2="114.17"/><line class="cls-1" x1="321.81" y1="110.82" x2="409.84" y2="110.82"/><line class="cls-1" x1="321.81" y1="107.47" x2="409.84" y2="107.47"/><line class="cls-1" x1="321.81" y1="104.11" x2="409.84" y2="104.11"/><line class="cls-1" x1="321.81" y1="100.76" x2="409.84" y2="100.76"/><line class="cls-1" x1="321.81" y1="84.87" x2="321.81" y2="78.63"/><line class="cls-1" x1="325" y1="78.63" x2="325" y2="84.85"/><line class="cls-1" x1="406.65" y1="84.87" x2="406.65" y2="78.63"/><line class="cls-1" x1="409.84" y1="78.63" x2="409.84" y2="84.85"/><line class="cls-1" x1="364.23" y1="84.87" x2="364.23" y2="78.63"/><line class="cls-1" x1="367.42" y1="78.63" x2="367.42" y2="84.85"/><rect class="cls-1" x="-1026.67" y="314.06" width="5.25" height="73.17" transform="translate(-596.04 472.1) rotate(-180)"/><polygon class="cls-1" points="430.63 90.82 433.04 84.58 425.38 84.58 425.38 90.82 430.63 90.82"/><rect class="cls-2" x="-1026.67" y="345.61" width="5.25" height="4.19" transform="translate(-596.04 466.21) rotate(-180)"/><line class="cls-1" x1="0.49" y1="159.76" x2="201.17" y2="159.76"/><rect class="cls-1" x="28.51" y="85.53" width="119.4" height="74.23"/><rect class="cls-1" x="43.47" y="98.48" width="89.77" height="61.28"/><rect class="cls-1" x="28.51" y="79.2" width="123.43" height="6.33"/><rect class="cls-1" x="28.51" y="38.92" width="119.4" height="40.28"/><path class="cls-1" d="M-1423.21,271c4.25,0,4.25,3.45,8.51,3.45s4.25-3.45,8.51-3.45,4.25,3.45,8.51,3.45,4.25-3.45,8.51-3.45,4.25,3.45,8.51,3.45,4.25-3.45,8.51-3.45,4.25,3.45,8.51,3.45,4.25-3.45,8.51-3.45,4.25,3.45,8.51,3.45,4.25-3.45,8.51-3.45,4.26,3.45,8.51,3.45,4.25-3.45,8.51-3.45,4.26,3.45,8.51,3.45,4.26-3.45,8.51-3.45" transform="translate(1452.06 -229.2)"/><path class="cls-1" d="M-1423.21,271c4.25,0,4.25,3.45,8.51,3.45s4.25-3.45,8.51-3.45,4.25,3.45,8.51,3.45,4.25-3.45,8.51-3.45,4.25,3.45,8.51,3.45,4.25-3.45,8.51-3.45,4.25,3.45,8.51,3.45,4.25-3.45,8.51-3.45,4.25,3.45,8.51,3.45,4.25-3.45,8.51-3.45,4.26,3.45,8.51,3.45,4.25-3.45,8.51-3.45,4.26,3.45,8.51,3.45,4.26-3.45,8.51-3.45" transform="translate(1452.06 -229.2)"/><path class="cls-1" d="M-1423.21,278.48c4.25,0,4.25,3.45,8.51,3.45s4.25-3.45,8.51-3.45,4.25,3.45,8.51,3.45,4.25-3.45,8.51-3.45,4.25,3.45,8.51,3.45,4.25-3.45,8.51-3.45,4.25,3.45,8.51,3.45,4.25-3.45,8.51-3.45,4.25,3.45,8.51,3.45,4.25-3.45,8.51-3.45,4.26,3.45,8.51,3.45,4.25-3.45,8.51-3.45,4.26,3.45,8.51,3.45,4.26-3.45,8.51-3.45" transform="translate(1452.06 -229.2)"/><path class="cls-1" d="M-1423.21,278.48c4.25,0,4.25,3.45,8.51,3.45s4.25-3.45,8.51-3.45,4.25,3.45,8.51,3.45,4.25-3.45,8.51-3.45,4.25,3.45,8.51,3.45,4.25-3.45,8.51-3.45,4.25,3.45,8.51,3.45,4.25-3.45,8.51-3.45,4.25,3.45,8.51,3.45,4.25-3.45,8.51-3.45,4.26,3.45,8.51,3.45,4.25-3.45,8.51-3.45,4.26,3.45,8.51,3.45,4.26-3.45,8.51-3.45" transform="translate(1452.06 -229.2)"/><path class="cls-1" d="M-1423.21,286c4.25,0,4.25,3.45,8.51,3.45s4.25-3.45,8.51-3.45,4.25,3.45,8.51,3.45,4.25-3.45,8.51-3.45,4.25,3.45,8.51,3.45,4.25-3.45,8.51-3.45,4.25,3.45,8.51,3.45,4.25-3.45,8.51-3.45,4.25,3.45,8.51,3.45,4.25-3.45,8.51-3.45,4.26,3.45,8.51,3.45,4.25-3.45,8.51-3.45,4.26,3.45,8.51,3.45,4.26-3.45,8.51-3.45" transform="translate(1452.06 -229.2)"/><path class="cls-1" d="M-1423.21,286c4.25,0,4.25,3.45,8.51,3.45s4.25-3.45,8.51-3.45,4.25,3.45,8.51,3.45,4.25-3.45,8.51-3.45,4.25,3.45,8.51,3.45,4.25-3.45,8.51-3.45,4.25,3.45,8.51,3.45,4.25-3.45,8.51-3.45,4.25,3.45,8.51,3.45,4.25-3.45,8.51-3.45,4.26,3.45,8.51,3.45,4.25-3.45,8.51-3.45,4.26,3.45,8.51,3.45,4.26-3.45,8.51-3.45" transform="translate(1452.06 -229.2)"/><path class="cls-1" d="M-1423.21,293.44c4.25,0,4.25,3.45,8.51,3.45s4.25-3.45,8.51-3.45,4.25,3.45,8.51,3.45,4.25-3.45,8.51-3.45,4.25,3.45,8.51,3.45,4.25-3.45,8.51-3.45,4.25,3.45,8.51,3.45,4.25-3.45,8.51-3.45,4.25,3.45,8.51,3.45,4.25-3.45,8.51-3.45,4.26,3.45,8.51,3.45,4.25-3.45,8.51-3.45,4.26,3.45,8.51,3.45,4.26-3.45,8.51-3.45" transform="translate(1452.06 -229.2)"/><path class="cls-1" d="M-1423.21,293.44c4.25,0,4.25,3.45,8.51,3.45s4.25-3.45,8.51-3.45,4.25,3.45,8.51,3.45,4.25-3.45,8.51-3.45,4.25,3.45,8.51,3.45,4.25-3.45,8.51-3.45,4.25,3.45,8.51,3.45,4.25-3.45,8.51-3.45,4.25,3.45,8.51,3.45,4.25-3.45,8.51-3.45,4.26,3.45,8.51,3.45,4.25-3.45,8.51-3.45,4.26,3.45,8.51,3.45,4.26-3.45,8.51-3.45" transform="translate(1452.06 -229.2)"/><path class="cls-1" d="M-1423.21,300.92c4.25,0,4.25,3.45,8.51,3.45s4.25-3.45,8.51-3.45,4.25,3.45,8.51,3.45,4.25-3.45,8.51-3.45,4.25,3.45,8.51,3.45,4.25-3.45,8.51-3.45,4.25,3.45,8.51,3.45,4.25-3.45,8.51-3.45,4.25,3.45,8.51,3.45,4.25-3.45,8.51-3.45,4.26,3.45,8.51,3.45,4.25-3.45,8.51-3.45,4.26,3.45,8.51,3.45,4.26-3.45,8.51-3.45" transform="translate(1452.06 -229.2)"/><path class="cls-1" d="M-1423.21,300.92c4.25,0,4.25,3.45,8.51,3.45s4.25-3.45,8.51-3.45,4.25,3.45,8.51,3.45,4.25-3.45,8.51-3.45,4.25,3.45,8.51,3.45,4.25-3.45,8.51-3.45,4.25,3.45,8.51,3.45,4.25-3.45,8.51-3.45,4.25,3.45,8.51,3.45,4.25-3.45,8.51-3.45,4.26,3.45,8.51,3.45,4.25-3.45,8.51-3.45,4.26,3.45,8.51,3.45,4.26-3.45,8.51-3.45" transform="translate(1452.06 -229.2)"/><circle class="cls-1" cx="55.1" cy="112.13" r="7.32"/><circle class="cls-1" cx="77.48" cy="112.13" r="7.32"/><circle class="cls-1" cx="99.85" cy="112.13" r="7.32"/><circle class="cls-1" cx="122.23" cy="112.13" r="7.32"/><line class="cls-1" x1="66.2" y1="98.48" x2="66.2" y2="159.76"/><line class="cls-1" x1="88.21" y1="98.48" x2="88.21" y2="159.76"/><line class="cls-1" x1="110.8" y1="98.48" x2="110.8" y2="159.76"/><rect class="cls-1" x="23.19" y="85.53" width="5.32" height="74.23"/><polygon class="cls-1" points="177.6 160 160.49 160 157.18 136.26 180.92 136.26 177.6 160"/><path class="cls-1" d="M-1272.33,346.51c0,13.22-4.78,17.43-10.68,17.43s-10.68-4.22-10.68-17.43,4.78-30.43,10.68-30.43S-1272.33,333.29-1272.33,346.51Z" transform="translate(1452.06 -229.2)"/><path class="cls-1" d="M-1289.27,338.17c-0.22,2.61.79,5.23,3.64,5.23" transform="translate(1452.06 -229.2)"/><path class="cls-1" d="M-1285.63,351.71c2.19,1.73,6.94,2.81,9.09,0" transform="translate(1452.06 -229.2)"/><path class="cls-1" d="M-1281.08,353.43s1,4.46-3,5.61" transform="translate(1452.06 -229.2)"/><line class="cls-1" x1="175.55" y1="139.84" x2="173.27" y2="156.09"/><line class="cls-1" x1="52.79" y1="108.96" x2="55.38" y2="112.67"/><line class="cls-1" x1="56.24" y1="108.96" x2="58.83" y2="112.67"/><line class="cls-1" x1="75.2" y1="108.96" x2="77.79" y2="112.67"/><line class="cls-1" x1="78.66" y1="108.96" x2="81.24" y2="112.67"/><line class="cls-1" x1="97.62" y1="108.96" x2="100.21" y2="112.67"/><line class="cls-1" x1="101.07" y1="108.96" x2="103.66" y2="112.67"/><line class="cls-1" x1="120.03" y1="108.96" x2="122.62" y2="112.67"/><line class="cls-1" x1="123.48" y1="108.96" x2="126.07" y2="112.67"/><line class="cls-1" x1="43.47" y1="85.53" x2="43.47" y2="79.2"/><line class="cls-1" x1="46.71" y1="79.2" x2="46.71" y2="85.52"/><line class="cls-1" x1="129.54" y1="85.53" x2="129.54" y2="79.2"/><line class="cls-1" x1="132.78" y1="79.2" x2="132.78" y2="85.52"/><line class="cls-1" x1="86.51" y1="85.53" x2="86.51" y2="79.2"/><line class="cls-1" x1="89.74" y1="79.2" x2="89.74" y2="85.52"/><polygon class="cls-1" points="23.19 91.58 20.74 85.25 28.51 85.25 28.51 91.58 23.19 91.58"/><rect class="cls-2" x="23.19" y="117.53" width="5.32" height="4.25"/><line class="cls-1" x1="121.61" y1="158.34" x2="336.97" y2="158.34"/><rect class="cls-1" x="153.35" y="6.75" width="153.45" height="151.23"/><rect class="cls-1" x="149.74" y="0.49" width="161.04" height="6.65"/><line class="cls-1" x1="183.73" y1="7.14" x2="183.73" y2="0.49"/><line class="cls-1" x1="187.13" y1="0.49" x2="187.13" y2="7.13"/><line class="cls-1" x1="274.2" y1="7.14" x2="274.2" y2="0.49"/><line class="cls-1" x1="277.6" y1="0.49" x2="277.6" y2="7.13"/><line class="cls-1" x1="228.96" y1="7.14" x2="228.96" y2="0.49"/><line class="cls-1" x1="232.37" y1="0.49" x2="232.37" y2="7.13"/><rect class="cls-1" x="198.31" y="92.52" width="63.69" height="44.25"/><rect class="cls-1" x="194.31" y="136.66" width="71.4" height="6.56"/><line class="cls-1" x1="217.13" y1="100.63" x2="219.44" y2="104.54"/><line class="cls-1" x1="220.21" y1="100.63" x2="222.52" y2="104.54"/><line class="cls-1" x1="249.78" y1="100.63" x2="252.09" y2="104.54"/><line class="cls-1" x1="252.86" y1="100.63" x2="255.17" y2="104.54"/><rect class="cls-1" x="201.17" y="95.51" width="27.71" height="38.44"/><rect class="cls-1" x="231.44" y="95.51" width="27.71" height="38.44"/><rect class="cls-1" x="147.82" y="6.5" width="5.59" height="150.56"/><polygon class="cls-1" points="147.82 12.86 145.25 6.2 153.42 6.2 153.42 12.86 147.82 12.86"/><rect class="cls-1" x="147.82" y="78.74" width="5.59" height="4.47"/><rect class="cls-1" x="147.82" y="36.61" width="5.59" height="4.47"/><rect class="cls-1" x="147.82" y="123.69" width="5.59" height="4.47"/><rect class="cls-1" x="171.8" y="92.52" width="24.49" height="41.43"/><rect class="cls-1" x="175.06" y="97.06" width="17.97" height="4.47"/><rect class="cls-1" x="175.06" y="124.61" width="17.97" height="4.47"/><polygon class="cls-1" points="175.06 101.53 187.82 124.51 193.03 124.61 180.06 101.53 175.06 101.53"/><rect class="cls-1" x="-1188.2" y="321.72" width="24.49" height="41.43" transform="translate(-899.85 455.67) rotate(-180)"/><rect class="cls-1" x="-1184.94" y="326.25" width="17.97" height="4.47" transform="translate(-899.85 427.78) rotate(-180)"/><rect class="cls-1" x="-1184.94" y="353.81" width="17.97" height="4.47" transform="translate(-899.85 482.89) rotate(-180)"/><polygon class="cls-1" points="285.09 101.53 272.32 124.51 267.12 124.61 280.09 101.53 285.09 101.53"/><rect class="cls-1" x="439.52" y="144.43" width="5.67" height="13.77"/><path class="cls-1" d="M-987.46,344.73a16.42,16.42,0,0,0,2.35-8.46,16.48,16.48,0,0,0-6.34-13,12.37,12.37,0,0,0,2.26-7.13,12.43,12.43,0,0,0-6.32-10.82,10.08,10.08,0,0,0,1.61-5.47,10.14,10.14,0,0,0-7.13-9.69,8.86,8.86,0,0,0,.64-3.3,8.9,8.9,0,0,0-8.9-8.9,8.9,8.9,0,0,0-8.9,8.9,8.88,8.88,0,0,0,.45,2.77,10.66,10.66,0,0,0-7.61,10.21,10.61,10.61,0,0,0,1.81,5.94,11.82,11.82,0,0,0-6.9,10.74,11.76,11.76,0,0,0,1.85,6.33,12.9,12.9,0,0,0-6.95,11.44,12.86,12.86,0,0,0,3.93,9.26c-3.49,3.13-5.56,7-5.56,11.29,0,10.26,12.11,18.59,27,18.59s27-8.32,27-18.59A14.7,14.7,0,0,0-987.46,344.73Z" transform="translate(1452.06 -229.2)"/><path class="cls-1" d="M-1022.66,322.66a9.05,9.05,0,0,0,7.74-4.71" transform="translate(1452.06 -229.2)"/><path class="cls-1" d="M-1008.32,320.49a9.06,9.06,0,0,1-9.06-9.06" transform="translate(1452.06 -229.2)"/><path class="cls-1" d="M-994.36,357.8a9.05,9.05,0,0,1-3.88-8.19" transform="translate(1452.06 -229.2)"/><path class="cls-1" d="M-1000.68,297.33a9.05,9.05,0,0,1-8.95,1.42" transform="translate(1452.06 -229.2)"/><path class="cls-1" d="M-1005.15,348.12a9.06,9.06,0,0,0,12.54-2.59" transform="translate(1452.06 -229.2)"/><rect class="cls-1" x="182.53" y="131.69" width="2.96" height="5.08"/><rect class="cls-1" x="274" y="131.69" width="2.96" height="5.08"/><rect class="cls-1" x="198.31" y="20.49" width="63.69" height="44.25"/><rect class="cls-1" x="194.31" y="64.63" width="71.4" height="6.56"/><line class="cls-1" x1="217.13" y1="28.6" x2="219.44" y2="32.51"/><line class="cls-1" x1="220.21" y1="28.6" x2="222.52" y2="32.51"/><line class="cls-1" x1="249.78" y1="28.6" x2="252.09" y2="32.51"/><line class="cls-1" x1="252.86" y1="28.6" x2="255.17" y2="32.51"/><rect class="cls-1" x="201.17" y="23.48" width="27.71" height="38.44"/><rect class="cls-1" x="231.44" y="23.48" width="27.71" height="38.44"/><rect class="cls-1" x="171.8" y="20.49" width="24.49" height="41.43"/><rect class="cls-1" x="175.06" y="25.03" width="17.97" height="4.47"/><rect class="cls-1" x="175.06" y="52.58" width="17.97" height="4.47"/><polygon class="cls-1" points="175.06 29.5 187.82 52.48 193.03 52.58 180.06 29.5 175.06 29.5"/><rect class="cls-1" x="-1188.2" y="249.69" width="24.49" height="41.43" transform="translate(-899.85 311.61) rotate(-180)"/><rect class="cls-1" x="-1184.94" y="254.23" width="17.97" height="4.47" transform="translate(-899.85 283.72) rotate(-180)"/><rect class="cls-1" x="-1184.94" y="281.78" width="17.97" height="4.47" transform="translate(-899.85 338.83) rotate(-180)"/><polygon class="cls-1" points="285.09 29.5 272.32 52.48 267.12 52.58 280.09 29.5 285.09 29.5"/><rect class="cls-1" x="182.53" y="59.66" width="2.96" height="5.08"/><rect class="cls-1" x="274" y="59.66" width="2.96" height="5.08"/><polygon class="cls-3" points="142.99 225.86 142.99 90.62 305.9 57.12 305.9 193.12 142.99 225.86"/><polygon class="cls-4" points="314.53 109.63 151.62 142.68 151.62 110.5 314.53 77.45 314.53 109.63"/><polygon class="cls-4" points="314.53 141.64 151.62 174.69 151.62 142.51 314.53 109.46 314.53 141.64"/><polygon class="cls-4" points="151.6 110.08 142.99 90.62 305.9 57.12 314.51 77.34 151.6 110.08"/><circle class="cls-5" cx="233.31" cy="142.07" r="4.07"/><line class="cls-6" x1="151.86" y1="142.33" x2="314.77" y2="109.59"/><line class="cls-6" x1="151.62" y1="110.08" x2="314.53" y2="77.34"/><line class="cls-6" x1="151.86" y1="142.33" x2="314.77" y2="109.59"/></svg>