<svg xmlns="http://www.w3.org/2000/svg" viewBox="0 0 413.56 202.28"><defs><style>.cls-1{fill:#fff;}.cls-1,.cls-2{stroke:#ebbeb8;stroke-linecap:round;stroke-linejoin:round;stroke-width:0.98px;}.cls-2{fill:none;}.cls-3{fill:#ff4500;}</style></defs><title>visuelVC</title><g id="Calque_2" data-name="Calque 2"><g id="Calque_1-2" data-name="Calque 1"><polygon class="cls-1" points="16.53 43.97 16.53 166.01 176.8 166.01 176.8 45.44 94.99 9.41 16.53 43.97"/><polygon class="cls-1" points="176.8 39.45 108.59 9.41 101.79 6.42 103.86 5.51 101.65 0.49 94.99 3.42 88.34 0.49 86.13 5.51 88.19 6.42 81.39 9.41 16.53 37.98 0.49 45.04 2.7 50.06 16.53 43.97 94.99 9.41 176.8 45.44 187.29 50.06 189.5 45.04 176.8 39.45"/><rect class="cls-1" x="133.57" y="97.48" width="29.96" height="68.58"/><rect class="cls-1" x="136.81" y="136.18" width="23.64" height="27.17"/><rect class="cls-1" x="136.81" y="101.08" width="23.64" height="27.17"/><line class="cls-2" x1="136.81" y1="131.77" x2="141.19" y2="131.77"/><polygon class="cls-1" points="188.1 166.02 173.27 166.02 170.41 145.46 190.97 145.46 188.1 166.02"/><path class="cls-1" d="M189.94,129c0,11.45-4.14,15.1-9.25,15.1s-9.25-3.65-9.25-15.1,4.14-26.36,9.25-26.36S189.94,117.59,189.94,129Z"/><path class="cls-1" d="M175.27,121.82c-.19,2.26.69,4.53,3.15,4.53"/><path class="cls-1" d="M178.42,133.54c1.9,1.5,6,2.43,7.88,0"/><path class="cls-1" d="M182.36,135s.82,3.87-2.6,4.86"/><line class="cls-2" x1="186.32" y1="148.55" x2="184.34" y2="162.64"/><rect class="cls-1" x="139" y="52.24" width="11.25" height="4.55"/><rect class="cls-1" x="28.97" y="155.18" width="11.25" height="4.55"/><rect class="cls-1" x="39.54" y="155.18" width="11.25" height="4.55"/><rect class="cls-1" x="63.57" y="32.43" width="11.25" height="4.55"/><rect class="cls-1" x="71.22" y="27.88" width="11.25" height="4.55"/><rect class="cls-1" x="143.98" y="47.69" width="11.25" height="4.55"/><rect class="cls-1" x="149.6" y="52.24" width="11.25" height="4.55"/><line class="cls-2" x1="412.03" y1="165.82" x2="222.31" y2="165.82"/><rect class="cls-1" x="258.67" y="95.62" width="112.93" height="70.21"/><rect class="cls-1" x="258.67" y="89.66" width="116.87" height="5.98"/><rect class="cls-1" x="258.72" y="51.58" width="112.88" height="38.08"/><path class="cls-1" d="M371.28,54.31c-4,0-4,3.26-8,3.26s-4-3.26-8-3.26-4,3.26-8,3.26-4-3.26-8-3.26-4,3.26-8,3.26-4-3.26-8-3.26-4,3.26-8,3.26-4-3.26-8-3.26-4,3.26-8,3.26-4-3.26-8-3.26-4,3.26-8,3.26-4-3.26-8-3.26-4,3.26-8,3.26-4-3.26-8-3.26"/><path class="cls-1" d="M371.28,54.31c-4,0-4,3.26-8,3.26s-4-3.26-8-3.26-4,3.26-8,3.26-4-3.26-8-3.26-4,3.26-8,3.26-4-3.26-8-3.26-4,3.26-8,3.26-4-3.26-8-3.26-4,3.26-8,3.26-4-3.26-8-3.26-4,3.26-8,3.26-4-3.26-8-3.26-4,3.26-8,3.26-4-3.26-8-3.26"/><path class="cls-1" d="M371.28,61.36c-4,0-4,3.26-8,3.26s-4-3.26-8-3.26-4,3.26-8,3.26-4-3.26-8-3.26-4,3.26-8,3.26-4-3.26-8-3.26-4,3.26-8,3.26-4-3.26-8-3.26-4,3.26-8,3.26-4-3.26-8-3.26-4,3.26-8,3.26-4-3.26-8-3.26-4,3.26-8,3.26-4-3.26-8-3.26"/><path class="cls-1" d="M371.28,61.36c-4,0-4,3.26-8,3.26s-4-3.26-8-3.26-4,3.26-8,3.26-4-3.26-8-3.26-4,3.26-8,3.26-4-3.26-8-3.26-4,3.26-8,3.26-4-3.26-8-3.26-4,3.26-8,3.26-4-3.26-8-3.26-4,3.26-8,3.26-4-3.26-8-3.26-4,3.26-8,3.26-4-3.26-8-3.26"/><path class="cls-1" d="M371.28,68.44c-4,0-4,3.26-8,3.26s-4-3.26-8-3.26-4,3.26-8,3.26-4-3.26-8-3.26-4,3.26-8,3.26-4-3.26-8-3.26-4,3.26-8,3.26-4-3.26-8-3.26-4,3.26-8,3.26-4-3.26-8-3.26-4,3.26-8,3.26-4-3.26-8-3.26-4,3.26-8,3.26-4-3.26-8-3.26"/><path class="cls-1" d="M371.28,68.44c-4,0-4,3.26-8,3.26s-4-3.26-8-3.26-4,3.26-8,3.26-4-3.26-8-3.26-4,3.26-8,3.26-4-3.26-8-3.26-4,3.26-8,3.26-4-3.26-8-3.26-4,3.26-8,3.26-4-3.26-8-3.26-4,3.26-8,3.26-4-3.26-8-3.26-4,3.26-8,3.26-4-3.26-8-3.26"/><path class="cls-1" d="M371.28,75.51c-4,0-4,3.26-8,3.26s-4-3.26-8-3.26-4,3.26-8,3.26-4-3.26-8-3.26-4,3.26-8,3.26-4-3.26-8-3.26-4,3.26-8,3.26-4-3.26-8-3.26-4,3.26-8,3.26-4-3.26-8-3.26-4,3.26-8,3.26-4-3.26-8-3.26-4,3.26-8,3.26-4-3.26-8-3.26"/><path class="cls-1" d="M371.28,75.51c-4,0-4,3.26-8,3.26s-4-3.26-8-3.26-4,3.26-8,3.26-4-3.26-8-3.26-4,3.26-8,3.26-4-3.26-8-3.26-4,3.26-8,3.26-4-3.26-8-3.26-4,3.26-8,3.26-4-3.26-8-3.26-4,3.26-8,3.26-4-3.26-8-3.26-4,3.26-8,3.26-4-3.26-8-3.26"/><path class="cls-1" d="M371.28,82.58c-4,0-4,3.26-8,3.26s-4-3.26-8-3.26-4,3.26-8,3.26-4-3.26-8-3.26-4,3.26-8,3.26-4-3.26-8-3.26-4,3.26-8,3.26-4-3.26-8-3.26-4,3.26-8,3.26-4-3.26-8-3.26-4,3.26-8,3.26-4-3.26-8-3.26-4,3.26-8,3.26-4-3.26-8-3.26"/><path class="cls-1" d="M371.28,82.58c-4,0-4,3.26-8,3.26s-4-3.26-8-3.26-4,3.26-8,3.26-4-3.26-8-3.26-4,3.26-8,3.26-4-3.26-8-3.26-4,3.26-8,3.26-4-3.26-8-3.26-4,3.26-8,3.26-4-3.26-8-3.26-4,3.26-8,3.26-4-3.26-8-3.26-4,3.26-8,3.26-4-3.26-8-3.26"/><circle class="cls-1" cx="344.06" cy="70.07" r="12.1"/><circle class="cls-1" cx="344.06" cy="70.07" r="8.09"/><circle class="cls-1" cx="288.1" cy="70.07" r="12.1"/><circle class="cls-1" cx="288.1" cy="70.07" r="8.09"/><line class="cls-2" x1="356.22" y1="95.64" x2="356.22" y2="89.66"/><line class="cls-2" x1="353.16" y1="89.66" x2="353.16" y2="95.63"/><line class="cls-2" x1="315.54" y1="95.64" x2="315.54" y2="89.66"/><line class="cls-2" x1="312.48" y1="89.66" x2="312.48" y2="95.63"/><polygon class="cls-1" points="413.07 145.65 359.22 145.65 386.15 55.06 413.07 145.65"/><polyline class="cls-1" points="401.39 126.1 396.06 133.19 390.73 126.1"/><polyline class="cls-1" points="390.73 126.1 385.39 133.19 380.06 126.1"/><polyline class="cls-1" points="380.55 135.26 375.22 142.35 369.89 135.26"/><polyline class="cls-1" points="401.39 109.4 396.06 116.49 390.73 109.4"/><polyline class="cls-1" points="387.75 87.57 382.42 94.67 377.08 87.57"/><rect class="cls-1" x="383.7" y="145.65" width="5.1" height="20.18"/><rect class="cls-1" x="280.41" y="103.89" width="67.5" height="39.8"/><rect class="cls-1" x="276.48" y="143.6" width="75.67" height="5.9"/><rect class="cls-1" x="280.41" y="103.9" width="67.5" height="27.85"/><line class="cls-2" x1="344.9" y1="127.94" x2="339.87" y2="127.94"/><line class="cls-2" x1="336.88" y1="127.94" x2="331.85" y2="127.94"/><line class="cls-2" x1="328.86" y1="127.94" x2="323.83" y2="127.94"/><line class="cls-2" x1="320.84" y1="127.94" x2="315.81" y2="127.94"/><line class="cls-2" x1="312.82" y1="127.94" x2="307.79" y2="127.94"/><line class="cls-2" x1="304.8" y1="127.94" x2="299.77" y2="127.94"/><line class="cls-2" x1="296.79" y1="127.8" x2="291.75" y2="127.8"/><line class="cls-2" x1="288.77" y1="127.8" x2="283.73" y2="127.8"/><line class="cls-2" x1="344.9" y1="123.86" x2="339.87" y2="123.86"/><line class="cls-2" x1="336.88" y1="123.86" x2="331.85" y2="123.86"/><line class="cls-2" x1="328.86" y1="123.86" x2="323.83" y2="123.86"/><line class="cls-2" x1="320.84" y1="123.86" x2="315.81" y2="123.86"/><line class="cls-2" x1="312.82" y1="123.86" x2="307.79" y2="123.86"/><line class="cls-2" x1="304.8" y1="123.86" x2="299.77" y2="123.86"/><line class="cls-2" x1="296.79" y1="123.72" x2="291.75" y2="123.72"/><line class="cls-2" x1="288.77" y1="123.72" x2="283.73" y2="123.72"/><line class="cls-2" x1="344.9" y1="119.78" x2="339.87" y2="119.78"/><line class="cls-2" x1="336.88" y1="119.78" x2="331.85" y2="119.78"/><line class="cls-2" x1="328.86" y1="119.78" x2="323.83" y2="119.78"/><line class="cls-2" x1="320.84" y1="119.78" x2="315.81" y2="119.78"/><line class="cls-2" x1="312.82" y1="119.78" x2="307.79" y2="119.78"/><line class="cls-2" x1="304.8" y1="119.78" x2="299.77" y2="119.78"/><line class="cls-2" x1="296.79" y1="119.64" x2="291.75" y2="119.64"/><line class="cls-2" x1="288.77" y1="119.64" x2="283.73" y2="119.64"/><line class="cls-2" x1="344.9" y1="115.7" x2="339.87" y2="115.7"/><line class="cls-2" x1="336.88" y1="115.7" x2="331.85" y2="115.7"/><line class="cls-2" x1="328.86" y1="115.7" x2="323.83" y2="115.7"/><line class="cls-2" x1="320.84" y1="115.7" x2="315.81" y2="115.7"/><line class="cls-2" x1="312.82" y1="115.7" x2="307.79" y2="115.7"/><line class="cls-2" x1="304.8" y1="115.7" x2="299.77" y2="115.7"/><line class="cls-2" x1="296.79" y1="115.56" x2="291.75" y2="115.56"/><line class="cls-2" x1="288.77" y1="115.56" x2="283.73" y2="115.56"/><line class="cls-2" x1="344.9" y1="111.62" x2="339.87" y2="111.62"/><line class="cls-2" x1="336.88" y1="111.62" x2="331.85" y2="111.62"/><line class="cls-2" x1="328.86" y1="111.62" x2="323.83" y2="111.62"/><line class="cls-2" x1="320.84" y1="111.62" x2="315.81" y2="111.62"/><line class="cls-2" x1="312.82" y1="111.62" x2="307.79" y2="111.62"/><line class="cls-2" x1="304.8" y1="111.62" x2="299.77" y2="111.62"/><line class="cls-2" x1="296.79" y1="111.48" x2="291.75" y2="111.48"/><line class="cls-2" x1="288.77" y1="111.48" x2="283.73" y2="111.48"/><line class="cls-2" x1="344.9" y1="107.54" x2="339.87" y2="107.54"/><line class="cls-2" x1="336.88" y1="107.54" x2="331.85" y2="107.54"/><line class="cls-2" x1="328.86" y1="107.54" x2="323.83" y2="107.54"/><line class="cls-2" x1="320.84" y1="107.54" x2="315.81" y2="107.54"/><line class="cls-2" x1="312.82" y1="107.54" x2="307.79" y2="107.54"/><line class="cls-2" x1="304.8" y1="107.54" x2="299.77" y2="107.54"/><line class="cls-2" x1="296.79" y1="107.4" x2="291.75" y2="107.4"/><line class="cls-2" x1="288.77" y1="107.4" x2="283.73" y2="107.4"/><line class="cls-2" x1="328.03" y1="134.5" x2="325.58" y2="138.02"/><line class="cls-2" x1="324.76" y1="134.5" x2="322.32" y2="138.02"/><line class="cls-2" x1="293.43" y1="134.5" x2="290.98" y2="138.02"/><line class="cls-2" x1="290.17" y1="134.5" x2="287.72" y2="138.02"/><rect class="cls-1" x="315.53" y="131.76" width="29.37" height="9.04"/><rect class="cls-1" x="283.45" y="131.76" width="29.37" height="9.04"/><rect class="cls-1" x="35.29" y="103.44" width="67.5" height="39.8"/><rect class="cls-1" x="31.36" y="143.14" width="75.67" height="5.9"/><rect class="cls-1" x="35.29" y="103.44" width="67.5" height="27.85"/><line class="cls-2" x1="99.78" y1="127.49" x2="94.75" y2="127.49"/><line class="cls-2" x1="91.76" y1="127.49" x2="86.73" y2="127.49"/><line class="cls-2" x1="83.74" y1="127.49" x2="78.71" y2="127.49"/><line class="cls-2" x1="75.72" y1="127.49" x2="70.69" y2="127.49"/><line class="cls-2" x1="67.7" y1="127.49" x2="62.67" y2="127.49"/><line class="cls-2" x1="59.68" y1="127.49" x2="54.65" y2="127.49"/><line class="cls-2" x1="51.66" y1="127.35" x2="46.63" y2="127.35"/><line class="cls-2" x1="43.64" y1="127.35" x2="38.61" y2="127.35"/><line class="cls-2" x1="99.78" y1="123.41" x2="94.75" y2="123.41"/><line class="cls-2" x1="91.76" y1="123.41" x2="86.73" y2="123.41"/><line class="cls-2" x1="83.74" y1="123.41" x2="78.71" y2="123.41"/><line class="cls-2" x1="75.72" y1="123.41" x2="70.69" y2="123.41"/><line class="cls-2" x1="67.7" y1="123.41" x2="62.67" y2="123.41"/><line class="cls-2" x1="59.68" y1="123.41" x2="54.65" y2="123.41"/><line class="cls-2" x1="51.66" y1="123.27" x2="46.63" y2="123.27"/><line class="cls-2" x1="43.64" y1="123.27" x2="38.61" y2="123.27"/><line class="cls-2" x1="99.78" y1="119.33" x2="94.75" y2="119.33"/><line class="cls-2" x1="91.76" y1="119.33" x2="86.73" y2="119.33"/><line class="cls-2" x1="83.74" y1="119.33" x2="78.71" y2="119.33"/><line class="cls-2" x1="75.72" y1="119.33" x2="70.69" y2="119.33"/><line class="cls-2" x1="67.7" y1="119.33" x2="62.67" y2="119.33"/><line class="cls-2" x1="59.68" y1="119.33" x2="54.65" y2="119.33"/><line class="cls-2" x1="51.66" y1="119.19" x2="46.63" y2="119.19"/><line class="cls-2" x1="43.64" y1="119.19" x2="38.61" y2="119.19"/><line class="cls-2" x1="99.78" y1="115.25" x2="94.75" y2="115.25"/><line class="cls-2" x1="91.76" y1="115.25" x2="86.73" y2="115.25"/><line class="cls-2" x1="83.74" y1="115.25" x2="78.71" y2="115.25"/><line class="cls-2" x1="75.72" y1="115.25" x2="70.69" y2="115.25"/><line class="cls-2" x1="67.7" y1="115.25" x2="62.67" y2="115.25"/><line class="cls-2" x1="59.68" y1="115.25" x2="54.65" y2="115.25"/><line class="cls-2" x1="51.66" y1="115.11" x2="46.63" y2="115.11"/><line class="cls-2" x1="43.64" y1="115.11" x2="38.61" y2="115.11"/><line class="cls-2" x1="99.78" y1="111.17" x2="94.75" y2="111.17"/><line class="cls-2" x1="91.76" y1="111.17" x2="86.73" y2="111.17"/><line class="cls-2" x1="83.74" y1="111.17" x2="78.71" y2="111.17"/><line class="cls-2" x1="75.72" y1="111.17" x2="70.69" y2="111.17"/><line class="cls-2" x1="67.7" y1="111.17" x2="62.67" y2="111.17"/><line class="cls-2" x1="59.68" y1="111.17" x2="54.65" y2="111.17"/><line class="cls-2" x1="51.66" y1="111.03" x2="46.63" y2="111.03"/><line class="cls-2" x1="43.64" y1="111.03" x2="38.61" y2="111.03"/><line class="cls-2" x1="99.78" y1="107.09" x2="94.75" y2="107.09"/><line class="cls-2" x1="91.76" y1="107.09" x2="86.73" y2="107.09"/><line class="cls-2" x1="83.74" y1="107.09" x2="78.71" y2="107.09"/><line class="cls-2" x1="75.72" y1="107.09" x2="70.69" y2="107.09"/><line class="cls-2" x1="67.7" y1="107.09" x2="62.67" y2="107.09"/><line class="cls-2" x1="59.68" y1="107.09" x2="54.65" y2="107.09"/><line class="cls-2" x1="51.66" y1="106.95" x2="46.63" y2="106.95"/><line class="cls-2" x1="43.64" y1="106.95" x2="38.61" y2="106.95"/><line class="cls-2" x1="82.91" y1="134.05" x2="80.46" y2="137.56"/><line class="cls-2" x1="79.64" y1="134.05" x2="77.19" y2="137.56"/><line class="cls-2" x1="48.31" y1="134.05" x2="45.86" y2="137.56"/><line class="cls-2" x1="45.04" y1="134.05" x2="42.6" y2="137.56"/><rect class="cls-1" x="70.41" y="131.3" width="29.37" height="9.04"/><rect class="cls-1" x="38.33" y="131.3" width="29.37" height="9.04"/><rect class="cls-1" x="35.29" y="45.13" width="67.5" height="39.8"/><rect class="cls-1" x="31.36" y="84.84" width="75.67" height="5.9"/><rect class="cls-1" x="35.29" y="45.14" width="67.5" height="27.85"/><line class="cls-2" x1="99.78" y1="69.18" x2="94.75" y2="69.18"/><line class="cls-2" x1="91.76" y1="69.18" x2="86.73" y2="69.18"/><line class="cls-2" x1="83.74" y1="69.18" x2="78.71" y2="69.18"/><line class="cls-2" x1="75.72" y1="69.18" x2="70.69" y2="69.18"/><line class="cls-2" x1="67.7" y1="69.18" x2="62.67" y2="69.18"/><line class="cls-2" x1="59.68" y1="69.18" x2="54.65" y2="69.18"/><line class="cls-2" x1="51.66" y1="69.05" x2="46.63" y2="69.05"/><line class="cls-2" x1="43.64" y1="69.05" x2="38.61" y2="69.05"/><line class="cls-2" x1="99.78" y1="65.1" x2="94.75" y2="65.1"/><line class="cls-2" x1="91.76" y1="65.1" x2="86.73" y2="65.1"/><line class="cls-2" x1="83.74" y1="65.1" x2="78.71" y2="65.1"/><line class="cls-2" x1="75.72" y1="65.1" x2="70.69" y2="65.1"/><line class="cls-2" x1="67.7" y1="65.1" x2="62.67" y2="65.1"/><line class="cls-2" x1="59.68" y1="65.1" x2="54.65" y2="65.1"/><line class="cls-2" x1="51.66" y1="64.97" x2="46.63" y2="64.97"/><line class="cls-2" x1="43.64" y1="64.97" x2="38.61" y2="64.97"/><line class="cls-2" x1="99.78" y1="61.02" x2="94.75" y2="61.02"/><line class="cls-2" x1="91.76" y1="61.02" x2="86.73" y2="61.02"/><line class="cls-2" x1="83.74" y1="61.02" x2="78.71" y2="61.02"/><line class="cls-2" x1="75.72" y1="61.02" x2="70.69" y2="61.02"/><line class="cls-2" x1="67.7" y1="61.02" x2="62.67" y2="61.02"/><line class="cls-2" x1="59.68" y1="61.02" x2="54.65" y2="61.02"/><line class="cls-2" x1="51.66" y1="60.89" x2="46.63" y2="60.89"/><line class="cls-2" x1="43.64" y1="60.89" x2="38.61" y2="60.89"/><line class="cls-2" x1="99.78" y1="56.94" x2="94.75" y2="56.94"/><line class="cls-2" x1="91.76" y1="56.94" x2="86.73" y2="56.94"/><line class="cls-2" x1="83.74" y1="56.94" x2="78.71" y2="56.94"/><line class="cls-2" x1="75.72" y1="56.94" x2="70.69" y2="56.94"/><line class="cls-2" x1="67.7" y1="56.94" x2="62.67" y2="56.94"/><line class="cls-2" x1="59.68" y1="56.94" x2="54.65" y2="56.94"/><line class="cls-2" x1="51.66" y1="56.81" x2="46.63" y2="56.81"/><line class="cls-2" x1="43.64" y1="56.81" x2="38.61" y2="56.81"/><line class="cls-2" x1="99.78" y1="52.86" x2="94.75" y2="52.86"/><line class="cls-2" x1="91.76" y1="52.86" x2="86.73" y2="52.86"/><line class="cls-2" x1="83.74" y1="52.86" x2="78.71" y2="52.86"/><line class="cls-2" x1="75.72" y1="52.86" x2="70.69" y2="52.86"/><line class="cls-2" x1="67.7" y1="52.86" x2="62.67" y2="52.86"/><line class="cls-2" x1="59.68" y1="52.86" x2="54.65" y2="52.86"/><line class="cls-2" x1="51.66" y1="52.73" x2="46.63" y2="52.73"/><line class="cls-2" x1="43.64" y1="52.73" x2="38.61" y2="52.73"/><line class="cls-2" x1="99.78" y1="48.78" x2="94.75" y2="48.78"/><line class="cls-2" x1="91.76" y1="48.78" x2="86.73" y2="48.78"/><line class="cls-2" x1="83.74" y1="48.78" x2="78.71" y2="48.78"/><line class="cls-2" x1="75.72" y1="48.78" x2="70.69" y2="48.78"/><line class="cls-2" x1="67.7" y1="48.78" x2="62.67" y2="48.78"/><line class="cls-2" x1="59.68" y1="48.78" x2="54.65" y2="48.78"/><line class="cls-2" x1="51.66" y1="48.65" x2="46.63" y2="48.65"/><line class="cls-2" x1="43.64" y1="48.65" x2="38.61" y2="48.65"/><line class="cls-2" x1="82.91" y1="75.75" x2="80.46" y2="79.26"/><line class="cls-2" x1="79.64" y1="75.75" x2="77.19" y2="79.26"/><line class="cls-2" x1="48.31" y1="75.75" x2="45.86" y2="79.26"/><line class="cls-2" x1="45.04" y1="75.75" x2="42.6" y2="79.26"/><rect class="cls-1" x="70.41" y="72.99" width="29.37" height="9.04"/><rect class="cls-1" x="38.33" y="72.99" width="29.37" height="9.04"/></g><g id="Calque_2-2" data-name="Calque 2"><g id="Calque_2-3" data-name="Calque 2"><g id="Calque_1-2-2" data-name="Calque 1-2"><polygon class="cls-3" points="269.15 42.85 109.64 75.83 109.64 85.41 269.13 52.43 269.15 42.85"/><path class="cls-3" d="M213,65.43v2.23l17.46-3.54v57.33L213,125v2.11l17.46-3.54v57L213,184.13v2.11l18-3.64,1.54-.32,36.5-7.67V53.86Zm54,107.41-34.5,7.31v-57l34.5-7.29Zm0-59.14L232.55,121V63.72L267,56.43Z"/><path class="cls-3" d="M211.74,65.68,185.69,71h0l-50.13,10.4V202.28l65.94-13.69,10.24-2.11v-2.11h0v-57h0v-2.11h0V67.93h0V65.7h0ZM185.46,183.29l-45.07,9.44v-2.59l45.07-9.41Zm0-11-45.07,9.52v-2.67l45.07-9.44Zm0-11-45.07,9.44v-2.59l45.07-9.44Zm0-11-45.07,9.41v-2.57l45.07-9.44Zm0-11-45.07,9.41v-2.57l45.07-9.44Zm0-11-45.07,9.41v-2.59l45.07-9.41Zm0-11L140.38,127V124.4L185.46,115Zm0-11L140.38,116v-2.59l45.07-9.52Zm0-11-45.07,9.41v-2.59l45.07-9.44Zm0-11-45.07,9.39V91.54l45.07-9.44Zm21.36,94.15-19.25,4v-2.57l19.25-4Zm0-11-19.25,4v-2.67l19.25-4Zm0-11-19.25,4v-2.59l19.25-4Zm0-11-19.25,4V147.4l19.25-4Zm0-11-19.25,4v-2.59l19.25-4Zm0-11-19.25,4v-2.57l19.25-4Zm0-11-19.25,4v-2.65l19.25-4Zm0-11-19.25,4v-2.57l19.25-4Zm0-11-19.25,4V92.62l19.25-4Zm0-11-19.25,4V81.66l19.25-4Z"/></g></g></g></g></svg>