<svg xmlns="http://www.w3.org/2000/svg" id="Calque_1" data-name="Calque 1" viewBox="0 0 35.22 86.57"><defs></defs><path class="cls-1" d="M410.4 267.15a1.77 1.77 0 0 0 2.5 2.5 11.65 11.65 0 0 1 16.47 0 1.77 1.77 0 0 0 2.51 0 1.78 1.78 0 0 0 0-2.5 15.19 15.19 0 0 0-21.48 0" transform="translate(-402.8 -255.58)"/><path class="cls-1" d="M407.3 264.86a19.58 19.58 0 0 1 27.7 0 1.78 1.78 0 0 0 2.51 0 1.79 1.79 0 0 0 0-2.51 23.14 23.14 0 0 0-32.71 0 1.78 1.78 0 1 0 2.51 2.51M434.92 281a2.14 2.14 0 0 0-2.44-1.53l-27.88 4.86a2.16 2.16 0 0 0-1.79 2.13v52a2.16 2.16 0 0 0 2.16 2.16h.17a2.15 2.15 0 0 0 2.42 1.52l27.88-4.58a2.16 2.16 0 0 0 1.81-2.14v-52.26a2.16 2.16 0 0 0-2.33-2.16Zm-16.24 52.81a3.05 3.05 0 0 1 2.47-2.89 2 2 0 0 1 2.47 2 3.05 3.05 0 0 1-2.47 2.89 2 2 0 0 1-2.47-1.99Zm17.57-50.66v41.54l-30.21 5V288a1.16 1.16 0 0 1 1-1.15l27.85-4.85h.2a1.16 1.16 0 0 1 1.16 1.16ZM405 288v51.6a1.15 1.15 0 0 1-1.24-1.16v-52a1.16 1.16 0 0 1 1-1.15l27.88-4.86a1.14 1.14 0 0 1 1.26.69l-27.08 4.72A2.16 2.16 0 0 0 405 288Z" transform="translate(-402.8 -255.58)"/><path class="cls-1" d="m16.1 54.79-1.77.27v4.39l1.77-.26v-4.4zM18.34 54.45l-1.77.27v4.4l1.77-.27v-4.4z"/><path class="cls-1" d="M421.47 298.77a.51.51 0 0 0-.37-.12.5.5 0 0 0-.34.17l-8.48 10a.5.5 0 0 0 .46.82l1.39-.21V319a.5.5 0 0 0 .5.5h.07l13-2a.5.5 0 0 0 .43-.49v-9.71l1.54-.23a.5.5 0 0 0 .25-.87Zm5.68 17.83-1.56.23v-5.08l-2.26.34v5.08l-8.21 1.24v-9.15l12-1.81v9.15Zm.43-10.23-13 2-.64.1 7.29-8.58 7.28 6.39Z" transform="translate(-402.8 -255.58)"/></svg>