<svg xmlns="http://www.w3.org/2000/svg" data-name="Calque 1" viewBox="0 0 67.75 74.8">
    <path d="M258.76 10.14V10l-20.2 4.15h-.22l-30.5 6.27-.15-.07v.1l-1.59.33-.38.08-14.6 3V80.3h.09v.13l9.25 4.28V78.5l1.8-.35v6.62l3.4-7.27 2.42-.47 8.88 4.1v-5.81l16.83-3.24v6.85l4.46-7.71.43-.08 2-.44L252 75v-6.81l2.06-.45V75l4.79-8.28V10Zm-59.31 41.3a.5.5 0 0 1-.66.24l-5.67-2.62a.5.5 0 1 1 .42-.91l5.67 2.62a.5.5 0 0 1 .23.67Zm0-4.36a.5.5 0 0 1-.66.24l-5.69-2.62a.5.5 0 1 1 .42-.91l5.67 2.62a.5.5 0 0 1 .25.67Zm0-4.36a.5.5 0 0 1-.66.24l-5.67-2.62a.5.5 0 1 1 .42-.91l5.67 2.62a.5.5 0 0 1 .23.66Zm0-4.36a.5.5 0 0 1-.66.24L193.1 36a.5.5 0 1 1 .42-.91l5.67 2.62a.5.5 0 0 1 .25.64Zm0-4.36a.5.5 0 0 1-.66.24l-5.67-2.62a.5.5 0 1 1 .42-.91l5.67 2.62a.5.5 0 0 1 .23.67Zm2.8 43.14-1.8.35V28.27l-7.82-3.61 12.54-2.58-2.93 6.27v48.78Zm3.38-29.9-1.36 2.89a.5.5 0 0 1-.91-.43l1.36-2.89a.5.5 0 0 1 .91.43Zm0-4.36-1.36 2.89a.5.5 0 0 1-.45.29.49.49 0 0 1-.21 0 .5.5 0 0 1-.24-.67l1.36-2.89a.5.5 0 0 1 .9.37Zm0-4.36-1.36 2.89a.5.5 0 0 1-.91-.43l1.36-2.89a.5.5 0 0 1 .91.42Zm0-4.36L204.27 37a.5.5 0 1 1-.91-.42l1.36-2.89a.5.5 0 0 1 .91.46Zm0-4.36-1.36 2.89a.5.5 0 1 1-.91-.42l1.36-2.89a.5.5 0 0 1 .91.41Zm18.65-11.64v27.63l-7.35 1.35V24.72l-7.58-3.5Zm-8.88 20.2a.5.5 0 0 1-.66.24l-5.68-2.6a.5.5 0 0 1 .42-.91l5.67 2.62a.5.5 0 0 1 .25.64Zm0 4.36a.5.5 0 0 1-.66.24l-5.67-2.62a.5.5 0 0 1 .42-.91l5.67 2.62a.5.5 0 0 1 .24.66Zm0-8.73a.5.5 0 0 1-.66.24l-5.67-2.62a.5.5 0 0 1 .42-.91l5.67 2.62a.5.5 0 0 1 .24.68Zm-6.58 10a.5.5 0 0 1 .66-.24l5.67 2.62a.5.5 0 0 1-.42.91l-5.67-2.62a.5.5 0 0 1-.24-.66Zm6.58-14.41a.5.5 0 0 1-.66.24l-5.67-2.62a.5.5 0 0 1 .42-.91l5.67 2.71a.5.5 0 0 1 .24.63Zm-9.31-7.74 1.59-.33v54.58l-1.59.31V21.89Zm14.41 51.78-3.56.69V48.16l7.35-1.35v26.08Zm13.27-2.55-8.48 1.63V46.62l8.48-1.56v26Zm0-27-8.48 1.56V17.94l12.38-2.55-3.9 6.74V44Zm4.08-2.85-1.69 2.91a.5.5 0 1 1-.86-.5l1.7-2.94a.5.5 0 1 1 .85.5Zm0-4.39-1.69 2.91a.5.5 0 1 1-.86-.5l1.7-2.94a.5.5 0 1 1 .85.5Zm0-4.39-1.69 2.91a.5.5 0 1 1-.86-.5l1.7-2.94a.5.5 0 1 1 .85.5Zm0-4.39-1.69 2.91a.5.5 0 1 1-.86-.5l1.7-2.95a.5.5 0 1 1 .85.49Zm0-4.39-1.69 2.91a.5.5 0 1 1-.86-.5l1.7-2.95a.5.5 0 1 1 .85.5Zm2.63 46.09-1.93.43V15.21l1.93-.4v54.9Zm10.18-28.26a.5.5 0 0 1-.64.29L243 39.11a.5.5 0 0 1 .35-.94l7.07 2.64a.5.5 0 0 1 .24.65Zm0-4.39a.5.5 0 0 1-.64.29L243 34.72a.5.5 0 0 1 .35-.94l7.07 2.64a.5.5 0 0 1 .24.64Zm0-4.39a.5.5 0 0 1-.66.29l-7-2.67a.5.5 0 0 1 .35-.94l7.02 2.61a.5.5 0 0 1 .29.67Zm0-4.39a.5.5 0 0 1-.64.29L243 25.94a.5.5 0 0 1 .3-.94l7.07 2.64a.5.5 0 0 1 .29.64Zm0-4.39a.5.5 0 0 1-.64.29L243 21.54a.5.5 0 0 1 .35-.94l7.07 2.64a.5.5 0 0 1 .24.65Zm3.41 42.82-2.06.45v-49l-9.88-3.69 15.62-3.21v.61l-3.69 6.38v48.42Zm4.09-29.41-.4.68-1.29 2.23a.5.5 0 1 1-.87-.5l1.69-2.91a.5.5 0 0 1 .47-.24.48.48 0 0 1 .22.06.5.5 0 0 1 .17.64Zm0-4.39-.4.68-1.29 2.23a.5.5 0 1 1-.87-.5l1.69-2.91a.5.5 0 0 1 .47-.24.49.49 0 0 1 .22.06.5.5 0 0 1 .17.64Zm0-4.39-.4.68-1.29 2.23a.5.5 0 1 1-.87-.5l1.69-2.97a.5.5 0 0 1 .47-.24.49.49 0 0 1 .22.06.5.5 0 0 1 .17.7Zm0-4.39-.4.68-1.3 2.15a.5.5 0 1 1-.87-.5l1.69-2.91a.5.5 0 0 1 .47-.24.49.49 0 0 1 .22.06.5.5 0 0 1 .18.71Zm0-4.39-.4.68-1.29 2.23a.5.5 0 1 1-.87-.5l1.69-2.91a.5.5 0 0 1 .47-.24.49.49 0 0 1 .22.06.5.5 0 0 1 .17.63Z" transform="translate(-191.1 -9.97)" />
</svg>