<?xml version="1.0" encoding="utf-8"?>
<!-- Generator: Adobe Illustrator 19.2.1, SVG Export Plug-In . SVG Version: 6.00 Build 0)  -->
<svg version="1.1" id="Calque_1" xmlns="http://www.w3.org/2000/svg" xmlns:xlink="http://www.w3.org/1999/xlink" x="0px" y="0px"
	 viewBox="0 0 40.8 80.4" style="enable-background:new 0 0 40.8 80.4;" xml:space="preserve">
<style type="text/css">
	.st0{fill:none;}
	.st1{fill:#FF4500;}
</style>
<title>Objet dynamique vectoriel31</title>
<g>
	<path class="st0" d="M35.1,45.7h-29c-0.4,0-0.8-0.3-0.8-0.8s0.3-0.8,0.8-0.8h29c0.4,0,0.8,0.3,0.8,0.8S35.5,45.7,35.1,45.7z
		 M10.5,40.9c0-0.4,0.3-0.8,0.8-0.8h17.3c0.4,0,0.8,0.3,0.8,0.8c0,0.4-0.3,0.8-0.8,0.8H11.2C10.8,41.7,10.5,41.3,10.5,40.9z
		 M35.1,37.9h-29c-0.4,0-0.8-0.3-0.8-0.8s0.3-0.8,0.8-0.8h29c0.4,0,0.8,0.3,0.8,0.8S35.5,37.9,35.1,37.9z M9,33.3
		c0-0.4,0.3-0.8,0.8-0.8h19c0.4,0,0.8,0.3,0.8,0.8s-0.3,0.8-0.8,0.8h-19C9.4,34.1,9,33.7,9,33.3z M35.8,29.5c0,0.4-0.3,0.8-0.8,0.8
		H6c-0.4,0-0.8-0.3-0.8-0.8s0.3-0.8,0.8-0.8h29C35.5,28.7,35.8,29.1,35.8,29.5z M5.7,19.1c0-0.4,0.3-0.8,0.8-0.8h28.3
		c0.4,0,0.8,0.3,0.8,0.8s-0.3,0.8-0.8,0.8H6.5C6,19.9,5.7,19.6,5.7,19.1z M35.5,15.8c0,0.4-0.3,0.8-0.8,0.8H6.5
		c-0.4,0-0.8-0.3-0.8-0.8C5.7,15.3,6,15,6.5,15h28.3C35.2,15,35.5,15.4,35.5,15.8z"/>
	<polygon class="st0" points="37.8,9.2 31.6,2.8 31.6,9.2 	"/>
	<path class="st1" d="M5.7,15.8c0,0.4,0.3,0.8,0.8,0.8h28.3c0.4,0,0.8-0.3,0.8-0.8c0-0.5-0.4-0.8-0.8-0.8H6.5
		C6,15,5.7,15.4,5.7,15.8z"/>
	<path class="st1" d="M34.8,19.9c0.4,0,0.8-0.3,0.8-0.8s-0.3-0.8-0.8-0.8H6.5c-0.4,0-0.8,0.3-0.8,0.8s0.3,0.8,0.8,0.8H34.8z"/>
	<path class="st1" d="M6.1,28.7c-0.4,0-0.8,0.3-0.8,0.8s0.3,0.8,0.8,0.8h29c0.4,0,0.8-0.3,0.8-0.8s-0.3-0.8-0.8-0.8H6.1z"/>
	<path class="st1" d="M28.8,34.1c0.4,0,0.8-0.3,0.8-0.8s-0.3-0.8-0.8-0.8h-19c-0.4,0-0.8,0.3-0.8,0.8s0.3,0.8,0.8,0.8H28.8z"/>
	<path class="st1" d="M35.1,36.3h-29c-0.4,0-0.8,0.3-0.8,0.8s0.3,0.8,0.8,0.8h29c0.4,0,0.8-0.3,0.8-0.8S35.5,36.3,35.1,36.3z"/>
	<path class="st1" d="M28.5,41.7c0.4,0,0.8-0.3,0.8-0.8c0-0.4-0.3-0.8-0.8-0.8H11.2c-0.4,0-0.8,0.3-0.8,0.8c0,0.4,0.3,0.8,0.8,0.8
		H28.5z"/>
	<path class="st1" d="M35.1,44.2h-29c-0.4,0-0.8,0.3-0.8,0.8s0.3,0.8,0.8,0.8h29c0.4,0,0.8-0.3,0.8-0.8S35.5,44.2,35.1,44.2z"/>
	<path class="st1" d="M25.3,68c-0.4,0-0.8,0.3-0.8,0.8v2.5c0,0.4,0.3,0.8,0.8,0.8s0.8-0.3,0.8-0.8v-2.5C26.1,68.4,25.7,68,25.3,68z"
		/>
	<path class="st1" d="M40.7,10.2c0.1-0.3,0-0.6-0.2-0.8l-9.2-9.2C31.2,0.1,31,0,30.8,0l0,0h-30C0.3,0,0,0.3,0,0.8v58.7
		c0,0.4,0.3,0.8,0.8,0.8h17.7l0,0l2.2,0.8L20,63.3c-0.1,0.2,0,0.5,0.1,0.7c0.2,0.2,0.4,0.3,0.7,0.3l1.2-0.1v15.4
		c0,0.3,0.2,0.6,0.5,0.7s0.6,0,0.9-0.2l5.1-6.4l4.9,6.5c0.1,0.2,0.4,0.3,0.6,0.3h0.2c0.4,0,0.8-0.3,0.8-0.8V64.2l1.2,0.1
		c0.3,0,0.5-0.1,0.7-0.3s0.2-0.5,0.1-0.7l-0.7-2.2l2.2-0.9l0,0H40c0.4,0,0.8-0.3,0.8-0.8v-49C40.8,10.3,40.8,10.2,40.7,10.2z
		 M31.6,2.8l6.2,6.4h-6.2C31.6,9.2,31.6,2.8,31.6,2.8z M33.5,77.7L29.1,72c-0.1-0.2-0.4-0.3-0.6-0.3c-0.3,0-0.5,0.1-0.6,0.3
		l-4.4,5.5V66.7c0.1,0.1,0.2,0.3,0.3,0.3c0.2,0.1,0.5,0.1,0.7,0l2-1.2l1.3,1.9c0.1,0.2,0.4,0.3,0.6,0.3s0.5-0.1,0.6-0.3l1.3-1.9
		l2,1.2c0.2,0.1,0.5,0.1,0.7,0c0.1-0.1,0.2-0.2,0.3-0.3v11H33.5z M35.1,60C35.1,60,35,60,35.1,60c-0.2,0.2-0.3,0.2-0.3,0.3
		c-0.1,0.2-0.2,0.4-0.1,0.7l0.3,1l0.2,0.8H35l-0.8-0.1l-0.8-0.1h-0.1c-0.4,0-0.8,0.3-0.8,0.6l-0.3,1.9l-1.7-0.9
		c-0.3-0.2-0.8-0.1-1,0.2l-1,1.6l-1.1-1.6c-0.1-0.2-0.4-0.3-0.6-0.3c-0.1,0-0.3,0-0.4,0.1l-1.7,0.9l-0.3-1.9
		c-0.1-0.4-0.4-0.7-0.8-0.6h-0.1l-0.8,0.1l-0.7,0h-0.2L22,62l0.3-1.1c0.1-0.2,0-0.5-0.1-0.7C22.1,60.1,22.1,60,22,60l-0.1-0.1
		l-1.8-0.7l0.5-0.5l0.8-0.9c0.3-0.3,0.3-0.7,0-1l-1.3-1.4l1.8-0.7c0.4-0.1,0.6-0.6,0.5-0.9L21.8,52l1.9,0.1c0.4,0,0.8-0.3,0.8-0.6
		l0.3-1.9l1.7,0.9c0.3,0.2,0.8,0.1,1-0.2l1.1-1.6l1.1,1.6c0.2,0.3,0.7,0.4,1,0.2l1.7-0.9l0.3,1.9c0.1,0.4,0.4,0.7,0.8,0.6l1.9-0.1
		l-0.6,1.8c-0.1,0.4,0.1,0.8,0.5,0.9l1.8,0.7l-1.3,1.4c-0.3,0.3-0.3,0.7,0,1l0.8,0.9l0.5,0.5L35.1,60z M39.3,58.7h-0.8l-1.3-1.4
		l1.6-1.7c0.2-0.2,0.2-0.4,0.2-0.7c-0.1-0.2-0.2-0.4-0.5-0.5l-2.2-0.9l0.7-2.2c0.1-0.2,0-0.5-0.1-0.7s-0.4-0.3-0.7-0.3l-2.3,0.2
		l-0.3-2.3c0-0.2-0.2-0.5-0.4-0.6s-0.5-0.1-0.7,0l-2,1.2l-1.3-1.9c-0.3-0.4-1-0.4-1.3,0l-1.3,1.9l-2-1.2c-0.2-0.1-0.5-0.1-0.7,0
		s-0.4,0.3-0.4,0.6l-0.4,2.3l-2.3-0.2c-0.2,0-0.5,0.1-0.7,0.3s-0.2,0.5-0.1,0.7l0.7,2.2l-2.2,0.8c-0.2,0.1-0.4,0.3-0.5,0.5
		s0,0.5,0.2,0.7l1.6,1.7l-1.3,1.4h-17V1.5h28.6v8.4c0,0.4,0.3,0.8,0.8,0.8h8.4l0,0C39.3,10.7,39.3,58.7,39.3,58.7z"/>
</g>
</svg>
