<?xml version="1.0" encoding="utf-8"?>
<!-- Generator: Adobe Illustrator 19.2.1, SVG Export Plug-In . SVG Version: 6.00 Build 0)  -->
<svg version="1.1" id="Calque_1" xmlns="http://www.w3.org/2000/svg" xmlns:xlink="http://www.w3.org/1999/xlink" x="0px" y="0px"
	 viewBox="0 0 54.9 63.9" style="enable-background:new 0 0 54.9 63.9;" xml:space="preserve">
<style type="text/css">
	.st0{fill:#FF4500;}
</style>
<title>pictoSavoirFaire</title>
<path class="st0" d="M11.2,44.7c-0.1,0-0.2,0-0.3-0.1c-0.4-0.2-0.5-0.7-0.3-1l4.6-9.1c0.2-0.4,0.6-0.5,1-0.3c0.4,0.2,0.5,0.7,0.3,1
	l-4.6,9.1C11.8,44.6,11.5,44.7,11.2,44.7z"/>
<path class="st0" d="M43.1,14.7c0-6.6-3.5-10.1-6.4-11.9c-2-1.2-5-2.2-5.7-1.9c-0.2,0.1-0.4,0.4-0.4,0.7c0,1.6-1.3,2.9-2.9,2.9
	c-1.6,0-2.9-1.3-2.9-2.9c0-0.4-0.3-0.8-0.8-0.8s-0.8,0.3-0.8,0.8c0,1.6-1.3,2.9-2.9,2.9s-2.9-1.3-2.9-2.9c0-0.4-0.3-0.8-0.8-0.8
	s-0.8,0.3-0.8,0.8c0,1.6-1.3,2.9-2.9,2.9c-1.5,0-2.9-2.1-2.9-3.7C10.3,0.3,10,0,9.6,0H9.3C9.2,0,9.1,0,9,0.1C4.9,2,1.9,7,1.9,11.9
	c0,3.4,1.6,6.4,4.2,8c2.5,1.5,5.6,1.6,9,0.3L0.9,44.1c-0.8,1.2-1.1,2.6-0.8,4c0.3,1.4,1.1,2.6,2.3,3.4c1.2,0.8,2.6,1.1,4,0.8
	c0.8-0.2,1.6-0.5,2.2-1c0.1,0.4,0.2,0.9,0.3,1.3c0.5,1.3,1.5,2.4,2.8,2.9c1.7,0.8,3.6,0.5,5.1-0.4c0.1,0.5,0.2,1,0.4,1.5
	c0.6,1.3,1.6,2.3,2.9,2.8c1.6,0.7,3.4,0.4,4.8-0.4c0.2,1.9,1.4,3.7,3.3,4.4c0.6,0.3,1.3,0.4,2,0.4c2.1,0,4.1-1.3,4.9-3.3
	c0.2-0.6,0.4-1.3,0.4-1.9c0-0.4,0.7-5.8,1.5-12.3c1.1-0.3,2-1,2.8-1.9c2.2-3,2.1-8.8-0.2-17.4c4.6,1.2,9.7,2,10.6,0.2
	c0.2-0.4,0-0.8-0.3-1c0,0-3.5-2.1-7.7-4.1l12.2-2.1c0.4-0.1,0.6-0.4,0.6-0.8C54.9,16.3,47.2,15.1,43.1,14.7z M39.7,20.9
	c-0.3-0.1-0.7-0.1-0.9,0.2c-0.2,0.3-0.2,0.7,0,0.9l0.1,0.1c0.1,0.2,0.4,0.3,0.6,0.3c3.2,1.5,6.3,3.2,8,4.2c-1.8,0-5.1-0.6-8.5-1.5
	c-0.2-0.1-0.4,0-0.6,0.1c-0.1,0.1-0.1,0.1-0.2,0.2c-0.3,0.2-0.5,0.5-0.4,0.9c0,0.1,0.1,0.2,0.1,0.3c0,0.1,0,0.1,0,0.2
	c0.4,1.4,0.7,2.8,1,4.1c1.3,6,1.1,10.3-0.4,12.4c-0.4,0.5-0.8,0.8-1.3,1.1c-0.5,0.2-1,0.4-1.6,0.4c-0.2,0-0.4,0.1-0.6,0.1
	c-1.5,0-2.6-0.4-3.4-1.4c-1.5-1.7-1.8-5.1-1.1-9.7c0-0.2,0-0.4-0.2-0.6c-0.1-0.1-0.3-0.2-0.5-0.3c-0.4-0.1-0.8,0.2-0.9,0.6
	c-0.8,5.2-0.3,8.9,1.4,11c1.1,1.3,2.6,1.9,4.5,1.9c0.1,0,0.3,0,0.4,0c-0.8,6.4-1.5,11.7-1.5,12c0,0.5-0.1,1-0.3,1.4
	c-0.4,0.9-1.1,1.7-2,2.1c-0.9,0.4-2,0.4-2.9,0c-1.9-0.8-2.9-3-2.1-4.9c0.1-0.4,0-0.8-0.4-1c-0.1-0.1-0.2-0.1-0.3-0.1
	c-0.3,0-0.5,0.1-0.7,0.4c-1,1.6-2.9,2.3-4.6,1.6c-0.9-0.4-1.7-1.1-2.1-2c-0.4-0.9-0.4-2,0-2.9c0.1-0.4,0-0.8-0.4-1
	c-0.4-0.2-0.8,0-1,0.3c-0.9,1.7-3,2.4-4.8,1.6c-0.9-0.4-1.6-1.1-2-2.1c-0.4-0.9-0.3-2,0.1-2.9c0.2-0.4,0-0.8-0.3-1l-0.1-0.1
	c-0.2-0.1-0.4-0.1-0.6,0c-0.2,0.1-0.4,0.2-0.4,0.4c-0.1,0.3-0.2,0.5-0.4,0.7c-0.6,0.8-1.4,1.4-2.4,1.6c-1,0.2-2,0-2.8-0.6
	c-0.8-0.6-1.4-1.4-1.6-2.4c-0.2-1,0-2,0.6-2.9l15.5-26c0.2-0.3,0.1-0.7-0.1-0.9c-0.2-0.2-0.6-0.3-0.9-0.1c-3.8,2-7.3,2.3-9.8,0.7
	c-2.2-1.3-3.5-3.8-3.5-6.7c0-4.1,2.3-8.2,5.4-10.1C9.4,3.9,11.1,6,13.2,6c1.5,0,2.8-0.8,3.6-1.9C17.6,5.2,19,6,20.5,6
	s2.8-0.8,3.6-1.9C24.9,5.2,26.2,6,27.8,6c2.1,0,3.9-1.5,4.3-3.5c2.4,0.6,9.8,3.3,9.5,12.9c0,0.4,0.3,0.7,0.7,0.8
	c4.8,0.4,9.3,1.5,10.7,2.5L39.7,20.9z"/>
<path class="st0" d="M28.9,46.3c-0.4-0.1-0.8,0.2-0.9,0.6l-1.3,5.3c-0.1,0.4,0.1,0.8,0.6,0.9c0.1,0,0.1,0,0.2,0
	c0.3,0,0.7-0.2,0.7-0.6l1.3-5.3C29.6,46.8,29.4,46.4,28.9,46.3z"/>
<path class="st0" d="M22.5,39.9c-0.4-0.2-0.8,0-1,0.4l-2.9,7.3c-0.2,0.4,0,0.8,0.4,1c0.1,0,0.2,0.1,0.3,0.1c0.3,0,0.6-0.2,0.7-0.5
	l2.9-7.3C23.1,40.5,22.9,40.1,22.5,39.9z"/>
<path class="st0" d="M22.5,39.9c-0.4-0.2-0.8,0-1,0.4l-2.9,7.3c-0.2,0.4,0,0.8,0.4,1c0.1,0,0.2,0.1,0.3,0.1c0.3,0,0.6-0.2,0.7-0.5
	l2.9-7.3C23.1,40.5,22.9,40.1,22.5,39.9z"/>
<path class="st0" d="M28.9,46.3c-0.4-0.1-0.8,0.2-0.9,0.6l-1.3,5.3c-0.1,0.4,0.1,0.8,0.6,0.9c0.1,0,0.1,0,0.2,0
	c0.3,0,0.7-0.2,0.7-0.6l1.3-5.3C29.6,46.8,29.4,46.4,28.9,46.3z"/>
<path class="st0" d="M34.6,18c0,1.1-0.9,1.9-1.9,1.9s-1.9-0.9-1.9-1.9s0.9-1.9,1.9-1.9S34.6,17,34.6,18z M32.7,18.4
	c0.2,0,0.4-0.2,0.4-0.4s-0.2-0.4-0.4-0.4s-0.4,0.2-0.4,0.4S32.5,18.4,32.7,18.4z"/>
</svg>
