<?xml version="1.0" encoding="utf-8"?>
<!-- Generator: Adobe Illustrator 19.2.1, SVG Export Plug-In . SVG Version: 6.00 Build 0)  -->
<svg version="1.1" id="Calque_1" xmlns="http://www.w3.org/2000/svg" xmlns:xlink="http://www.w3.org/1999/xlink" x="0px" y="0px"
	 viewBox="0 0 53.4 63.9" style="enable-background:new 0 0 53.4 63.9;" xml:space="preserve">
<style type="text/css">
	.st0{fill:#FF4500;}
</style>
<title>pictoGaranties</title>
<g>
	<path class="st0" d="M26.2,33.6c-6.7,0-12.1-5.4-12.1-12.1S19.6,9.4,26.2,9.4h0c6.7,0,12.1,5.4,12.1,12.1
		C38.4,28.1,32.9,33.6,26.2,33.6z M26.2,10.9c-5.8,0-10.6,4.7-10.6,10.6S20.4,32,26.2,32s10.6-4.7,10.6-10.6
		C36.8,15.6,32.1,10.9,26.2,10.9L26.2,10.9z M24.7,28.2c-0.2,0-0.4-0.1-0.5-0.2l-5.3-5.3c-0.3-0.3-0.3-0.8,0-1.1l2.2-2.2
		c0.3-0.3,0.8-0.3,1.1,0l2.6,2.6l7-7c0.1-0.1,0.3-0.2,0.5-0.2h0c0.2,0,0.4,0.1,0.5,0.2l2.2,2.2c0.3,0.3,0.3,0.8,0,1.1L25.2,28
		C25.1,28.2,24.9,28.2,24.7,28.2z M20.5,22.2l4.2,4.2l8.7-8.7l-1.1-1.1l-7,7c-0.3,0.3-0.8,0.3-1.1,0L21.6,21L20.5,22.2z"/>
</g>
<g>
	<path class="st0" d="M14.2,63.9C14.2,63.9,14.2,63.9,14.2,63.9c-0.4,0-0.6-0.2-0.7-0.5l-3-10l-9.4,4.4c-0.3,0.1-0.6,0.1-0.9-0.1
		c-0.2-0.2-0.3-0.6-0.2-0.9l9.7-22.7c0.2-0.4,0.6-0.6,1-0.4c0.4,0.2,0.6,0.6,0.4,1L2.3,55.5l8.3-3.9c0.2-0.1,0.4-0.1,0.6,0
		c0.2,0.1,0.4,0.3,0.4,0.5l2.6,8.8l8-19.2c0.2-0.4,0.6-0.6,1-0.4c0.4,0.2,0.6,0.6,0.4,1l-8.9,21.2C14.8,63.7,14.5,63.9,14.2,63.9z"
		/>
</g>
<g>
	<path class="st0" d="M39.2,63.8c-0.3,0-0.6-0.2-0.7-0.5l-9.7-23.3c-0.2-0.4,0-0.8,0.4-1c0.4-0.2,0.8,0,1,0.4l8.8,21.3l2.6-8.8
		c0.1-0.2,0.2-0.4,0.4-0.5s0.4-0.1,0.6,0l8.3,4l-10-23.4c-0.2-0.4,0-0.8,0.4-1c0.4-0.2,0.8,0,1,0.4l10.8,25.2
		c0.1,0.3,0.1,0.6-0.2,0.9s-0.6,0.3-0.9,0.1L43,53.2l-3,10C39.9,63.6,39.6,63.8,39.2,63.8C39.3,63.8,39.2,63.8,39.2,63.8z"/>
</g>
<g>
	<path class="st0" d="M23.2,43.2c-0.7,0-1.5-0.1-2.6-0.4c-3.2-0.9-3.8-1.9-4.4-3.4c-0.3-0.7-0.6-1.5-1.8-2.5
		c-1.3-1.1-2.3-1.3-3.2-1.5c-1.3-0.2-2.7-0.5-4-2.8c-1.5-2.5-1-3.9-0.6-5.3c0.3-0.9,0.5-1.8,0.4-3.2c-0.1-1.5-0.6-2.3-1.2-3.2
		c-0.8-1.2-1.6-2.4-0.9-4.9c0.6-2.3,1.4-2.8,2.7-3.5c0.9-0.4,1.8-0.9,3.1-2.6C12.2,8,12.5,6.9,12.7,6c0.3-1.2,0.5-2.2,2.5-3.5
		c2.1-1.4,3.6-1,5-0.6c1,0.3,2,0.6,3.5,0.4c1.5-0.2,2.4-0.7,3.2-1.2c1.3-0.7,2.4-1.4,4.9-0.9c2.6,0.6,3.3,2,4.1,3.3
		c0.5,0.9,1,1.8,2.1,2.6c1.1,0.8,2.2,1.1,3.2,1.4c1.5,0.4,3.1,0.9,4.1,2.9c1,2,0.7,3.3,0.4,4.7c-0.2,1-0.4,2.1-0.3,3.7c0,0,0,0,0,0
		c0.1,1.5,0.7,2.3,1.2,3.1c0.8,1.1,1.6,2.3,0.9,5c-0.7,2.8-2.1,3.5-3.4,4.1c-0.9,0.4-1.7,0.9-2.5,2c-0.8,1.1-1,2-1.2,2.9
		c-0.3,1.4-0.6,2.9-3.1,4.4c-2.4,1.5-3.7,1-4.9,0.5c-0.9-0.3-1.8-0.7-3.5-0.4c-1.6,0.3-2.2,0.8-2.9,1.4
		C25.2,42.7,24.5,43.2,23.2,43.2z M18,3.1c-0.6,0-1.2,0.2-2,0.7c-1.4,0.9-1.6,1.5-1.8,2.5c-0.2,1-0.6,2.3-2.1,4.4
		c-1.5,2.1-2.8,2.7-3.7,3.1c-1,0.5-1.4,0.7-1.9,2.5c-0.5,1.9,0,2.7,0.7,3.7c0.6,0.9,1.3,2,1.5,3.9c0.1,1.7-0.2,2.9-0.5,3.8
		c-0.4,1.3-0.6,2.1,0.5,4.1c1,1.7,1.8,1.9,3,2.1c1.1,0.2,2.4,0.4,4,1.8c1.4,1.2,1.8,2.3,2.2,3.1c0.4,1.1,0.7,1.7,3.4,2.5
		c2.6,0.8,3.1,0.3,4-0.4c0.7-0.6,1.6-1.4,3.6-1.7c2.1-0.4,3.3,0.1,4.3,0.4c1.1,0.4,1.8,0.7,3.6-0.4c1.9-1.2,2.1-2.1,2.4-3.4
		c0.2-0.9,0.5-2.1,1.5-3.5c1-1.4,2.2-2,3.1-2.4c1.2-0.6,2-1,2.6-3.1c0.5-2,0.1-2.7-0.7-3.8c-0.6-0.9-1.3-1.9-1.5-3.9
		c-0.2-1.8,0.1-3.1,0.3-4.2c0.3-1.4,0.5-2.2-0.3-3.7c-0.7-1.5-1.7-1.7-3.1-2.1c-1.1-0.3-2.4-0.7-3.7-1.7c-1.3-1-1.9-2.1-2.5-3.1
		c-0.7-1.2-1.2-2.1-3.1-2.5c-1.9-0.4-2.7,0-3.8,0.7c-0.9,0.5-2,1.2-3.8,1.4c-1.8,0.3-3.1-0.1-4.2-0.4C19.1,3.3,18.5,3.1,18,3.1z
		 M26.3,37.5c-1.3,0-2.7-0.2-4.1-0.5l0,0c-4.1-1.1-7.6-3.7-9.8-7.4c-2.2-3.7-2.7-8-1.6-12.1c1.1-4.1,3.7-7.6,7.4-9.8
		c3.7-2.2,8-2.7,12.1-1.6c4.1,1.1,7.6,3.7,9.8,7.4s2.7,8,1.6,12.1C39.8,32.7,33.3,37.5,26.3,37.5z M26.2,7c-2.5,0-5,0.7-7.3,2
		c-3.3,1.9-5.7,5.1-6.7,8.8s-0.5,7.6,1.5,11c1.9,3.3,5.1,5.7,8.8,6.7l0,0c7.7,2,15.7-2.6,17.7-10.3c1-3.8,0.5-7.7-1.5-11
		c-1.9-3.3-5.1-5.7-8.8-6.7C28.7,7.1,27.5,7,26.2,7z"/>
</g>
<path class="st0" d="M11.9,48.2c-0.1,0-0.2,0-0.3-0.1c-0.4-0.2-0.6-0.6-0.4-1l2-5c0.2-0.4,0.6-0.6,1-0.4c0.4,0.2,0.6,0.6,0.4,1l-2,5
	C12.5,48,12.2,48.2,11.9,48.2z"/>
<path class="st0" d="M8.2,49.5c-0.1,0-0.2,0-0.3-0.1c-0.4-0.2-0.6-0.6-0.4-1l3.7-8.8c0.2-0.4,0.6-0.6,1-0.4c0.4,0.2,0.6,0.6,0.4,1
	L8.9,49C8.8,49.3,8.5,49.5,8.2,49.5z"/>
</svg>
