<?xml version="1.0" encoding="utf-8"?>
<!-- Generator: Adobe Illustrator 19.2.1, SVG Export Plug-In . SVG Version: 6.00 Build 0)  -->
<svg version="1.1" id="Calque_1" xmlns="http://www.w3.org/2000/svg" xmlns:xlink="http://www.w3.org/1999/xlink" x="0px" y="0px"
	 viewBox="0 0 61.2 63.7" style="enable-background:new 0 0 61.2 63.7;" xml:space="preserve">
<style type="text/css">
	.st0{fill:#FF4500;}
</style>
<title>pictoInstallateurs</title>
<g>
	<path class="st0" d="M36.5,63.7c0,0-0.1,0-0.1,0l-6.8-1L18,60.4c-0.1,0-0.3-0.1-0.4-0.2l-4.7-4.7c-0.3-0.3-0.3-0.8,0-1.1l2.2-2.4
		l1.3-15l-4-3c-0.1-0.1-0.2-0.2-0.3-0.3l-2-5.3l-8.3-2.5c-0.3-0.1-0.5-0.3-0.5-0.6l-1.2-5c-0.1-0.3,0.1-0.7,0.4-0.9l4.9-2.6
		c0.2-0.1,0.4-0.1,0.7,0l4.6,1.9l2.9-0.2l-0.7-7.8c0-0.2,0.1-0.4,0.2-0.6c0.2-0.2,0.4-0.2,0.6-0.2l3,0.1c0.2,0,0.4,0.1,0.5,0.2
		l2.4,2.3l3.4-0.2l1.8-2.5c0.1-0.1,0.1-0.2,0.2-0.2l4.2-2.6L30,2c0.1-0.3,0.2-0.5,0.5-0.5L34.6,0c0.2-0.1,0.5,0,0.7,0.1l7.5,6
		L46.8,7c0.2,0.1,0.4,0.2,0.5,0.4l1.2,2.7l4.8,1.1c0.2,0,0.4,0.2,0.5,0.3l1.4,2.3l5.5,1c0.2,0,0.4,0.2,0.5,0.3
		c0.1,0.2,0.2,0.4,0.1,0.6l-2.4,10.4c0,0.1-0.1,0.2-0.1,0.3l-6.2,8.3l3.1,2.7c0.2,0.1,0.3,0.3,0.3,0.6l0.4,10.7l2.2,1
		c0.2,0.1,0.3,0.2,0.4,0.4l0.8,2c0.1,0.3,0,0.7-0.3,0.9l-7,5c-0.2,0.1-0.4,0.2-0.6,0.1l-11.7-2.8l-3,2.8l0.1,4.8
		c0,0.2-0.1,0.4-0.3,0.6C36.8,63.6,36.6,63.7,36.5,63.7z M18.5,58.9l11.2,2.2l5.9,0.9l-0.1-4.2c0-0.2,0.1-0.4,0.2-0.6l3.6-3.3
		c0.2-0.2,0.5-0.2,0.7-0.2l11.8,2.8l6.2-4.4L57.6,51l-2.3-1.1c-0.3-0.1-0.4-0.4-0.4-0.7l-0.4-10.8L51,35.5c-0.3-0.3-0.4-0.7-0.1-1
		l6.5-8.7l2.2-9.5l-5-0.9c-0.2,0-0.4-0.2-0.5-0.4l-1.4-2.4l-4.8-1.1c-0.2-0.1-0.4-0.2-0.5-0.4L46,8.4l-3.7-0.8
		c-0.1,0-0.2-0.1-0.3-0.1l-7.3-5.8l-3.3,1.2l-1.1,4.7c0,0.2-0.2,0.4-0.3,0.5l-4.3,2.7l-1.9,2.6c-0.1,0.2-0.3,0.3-0.6,0.3l-4.1,0.3
		c-0.2,0-0.4-0.1-0.6-0.2l-2.4-2.3l-1.9-0.1L15,19c0,0.2,0,0.4-0.2,0.6c-0.1,0.2-0.3,0.3-0.5,0.3l-3.8,0.3c-0.1,0-0.2,0-0.3-0.1
		l-4.4-1.8l-4,2.2l1,4l8.3,2.5c0.2,0.1,0.4,0.2,0.5,0.5l2,5.5l4.2,3.2c0.2,0.2,0.3,0.4,0.3,0.7l-1.3,15.7c0,0.2-0.1,0.3-0.2,0.4
		l-1.9,2.1L18.5,58.9z M29.6,7.3L29.6,7.3L29.6,7.3z"/>
</g>
</svg>
