
<svg xmlns="http://www.w3.org/2000/svg" viewBox="0 0 67.65 70.26"><path d="M387 276.93v56.35l67.65-13.6V263Zm58.73 6.77-.15-.73 3.59-.73.15.73Zm3.59 5.77-3.59.73-.15-.73 3.59-.73Zm-3.59-12.26-.15-.73 3.59-.73.15.73Zm0-6.49-.15-.73 3.59-.73.15.73ZM439 285l-.15-.73 3.59-.73.15.73Zm3.59 5.77-3.59.73-.15-.73 3.59-.73ZM439 278.55l-.15-.73 3.59-.73.15.73Zm0-6.49-.15-.73 3.59-.73.15.73Zm-6.66 14.34-.15-.73 3.59-.73.15.73Zm3.59 5.77-3.59.73-.15-.73 3.59-.73Zm-3.59-12.26-.15-.73 3.59-.73.15.73Zm0-6.49-.15-.73 3.59-.73.15.73Zm-6.66 14.34-.15-.73 3.59-.73.18.7Zm3.59 5.77-3.59.73-.15-.73 3.59-.73Zm-3.59-12.26-.15-.73 3.59-.73.15.73Zm0-6.49-.15-.73 3.59-.73.18.68Zm-6.66 14.34-.15-.73 3.59-.73.15.73Zm3.59 5.77-3.59.73-.15-.73 3.59-.73Zm-3.59-12.26-.15-.73 3.59-.73.15.73Zm0-6.49-.15-.73 3.59-.73.15.73Zm-6.66 14.34-.15-.73 3.59-.73.15.73Zm3.59 5.77-3.59.73-.15-.73 3.59-.73ZM412.4 284l-.15-.73 3.59-.73.15.73Zm0-6.49-.15-.73 3.59-.73.15.73Zm-6.66 14.34-.15-.73 3.59-.73.15.73Zm3.59 5.77-3.59.73-.15-.73 3.59-.73Zm-3.59-12.26-.15-.73 3.59-.73.15.73Zm0-6.49-.15-.73 3.59-.73.15.73Zm-6.66 14.34-.15-.73 3.59-.73.15.73Zm3.59 5.77-3.59.73-.15-.73 3.59-.73Zm-3.59-12.26-.15-.73 3.59-.73.15.73Zm0-6.49-.15-.73 3.59-.73.15.73Zm-6.66 14.34-.15-.73 3.59-.73.15.73Zm3.59 5.77-3.59.73-.15-.73 3.59-.73ZM392.43 288l-.15-.73 3.59-.73.15.73Zm0-6.49-.15-.73 3.59-.73.15.73Zm-4.43 13.9v-.77l1.26-.26.15.73Zm1.41 6.21-1.41.29v-.77l1.26-.26ZM388 288.91v-.77l1.26-.26.15.73Zm0-6.49v-.77l1.26-.26.15.73Zm64.39-.07-.15-.73 1.41-.29v.77Zm1.26 5.47v.77l-1.26.26-.15-.73Zm-1.26-12-.15-.73 1.41-.29v.77Zm0-6.49-.15-.73 1.41-.29v.77Zm-31.06 56v-23.68l-1 .21v23.7l-32.33 6.5v-24.23l65.65-13.31v24.35Z" transform="translate(-386.95 -263.02)"/></svg>