<svg xmlns="http://www.w3.org/2000/svg" data-name="Calque 1" viewBox="0 0 67.67 80.67"><path d="M392.27 318.81v-56.62l-67.65 13.91v56.35l27.24 10.39v-56.37l-25.55-9.74 34.31-7.05v27.38l-8.15 1.67v1l8.15-1.67v26.08l-8.15 1.64v1l18.25-3.67v-1l-9.1 1.83v-26.07l9.1-1.87v-1l-9.1 1.87v-27.4l28.38-5.83-18.63 11.75V332l20.9-13.2Zm-48.53 11.46-18.12-7v-2.12l18.13 7v2.12Zm0-35-18.12-7v-2.12l18.13 7v2.13ZM378.15 280l13.13-7.73v2.12l-13.12 7.73V280Zm0 35.41 13.13-8.12v2.12l-13.12 8.12v-2.13Z" transform="translate(-324.62 -262.15)" /></svg>